<svg xmlns="http://www.w3.org/2000/svg" xmlns:xlink="http://www.w3.org/1999/xlink" xmlns:inkscape="http://www.inkscape.org/namespaces/inkscape" version="1.1" width="197" height="165" viewBox="0 0 197 165">
<defs>
<clipPath id="clip_1">
<path transform="matrix(1.00003,0,0,-1.00003,-37.757669,163.19441)" d="M38.85382 0H233.12294V161.39257H38.85382Z"/>
</clipPath>
<path id="font_2_3" d="M.3959961 .37998963C.37998963 .37998963 .3659973 .37998963 .35198976 .36598207 .33599855 .35098268 .33399964 .33398438 .33399964 .3269806 .33399964 .30297853 .35198976 .2919922 .37098695 .2919922 .3999939 .2919922 .4269867 .315979 .4269867 .35598756 .4269867 .40522767 .37998963 .4423828 .30899049 .4423828 .17399597 .4423828 .040985109 .2989807 .040985109 .15811157 .040985109 .06819153 .09899902-.0107421879 .20298767-.0107421879 .34599305-.0107421879 .42999269 .09516907 .42999269 .107162479 .42999269 .11315918 .42399598 .120147708 .41799928 .120147708 .41299439 .120147708 .41099549 .1181488 .40499879 .1101532 .32598878 .011245728 .21699524 .011245728 .20498657 .011245728 .14199829 .011245728 .114990238 .06021118 .114990238 .120147708 .114990238 .1611023 .1349945 .25801087 .16899109 .31999208 .19999695 .37698365 .25498963 .42037965 .30999757 .42037965 .34399415 .42037965 .38198854 .40724183 .3959961 .37998963Z"/>
<path id="font_2_1" d="M.37298585 .37835694C.35499574 .41537477 .32598878 .4423828 .2809906 .4423828 .1639862 .4423828 .039993287 .29533387 .039993287 .14929199 .039993287 .055267335 .09498596-.0107421879 .17298889-.0107421879 .19299317-.0107421879 .24299622-.0067443849 .30299378 .06427002 .31098939 .022247315 .34599305-.0107421879 .3939972-.0107421879 .42900086-.0107421879 .45199586 .012252808 .46798707 .044265748 .4850006 .08027649 .49798585 .14129639 .49798585 .14329529 .49798585 .1532898 .4889984 .1532898 .48599244 .1532898 .47599793 .1532898 .47499085 .14929199 .47200013 .13528443 .45498658 .07026672 .43699647 .011245728 .3959961 .011245728 .36898805 .011245728 .3659973 .037261964 .3659973 .057266237 .3659973 .07926941 .36799623 .08728027 .3789978 .13128662 .3899994 .17329407 .3919983 .18330384 .40098573 .22131348L.43699647 .36135865C.44400025 .38935853 .44400025 .39135743 .44400025 .39537049 .44400025 .41236878 .43199159 .42237855 .4149933 .42237855 .3909912 .42237855 .37599183 .4003601 .37298585 .37835694M.30799867 .119277957C.30299378 .10127258 .30299378 .09927368 .28799439 .08227539 .24398804 .027252198 .20298767 .011245728 .1749878 .011245728 .125 .011245728 .11099243 .06626892 .11099243 .105285648 .11099243 .1552887 .14299011 .27833558 .1659851 .32434083 .19699097 .38336183 .24198914 .42037965 .28199769 .42037965 .34700013 .42037965 .36099244 .3383484 .36099244 .33235169 .36099244 .32633973 .35899354 .32034303 .35798646 .31533814L.30799867 .119277957Z"/>
<path id="font_2_2" d="M.23899842 .68333438C.23899842 .6843262 .23899842 .69433596 .22599793 .69433596 .20298767 .69433596 .12998963 .6863251 .10398865 .6843262 .09599304 .68333438 .084991458 .6823273 .084991458 .6643219 .084991458 .6523285 .09399414 .6523285 .10899353 .6523285 .15699768 .6523285 .15899658 .6453247 .15899658 .6353302 .15899658 .6283264 .1499939 .5943451 .14498902 .573349L.06298828 .24731446C.050994874 .1973114 .04699707 .18130493 .04699707 .14628601 .04699707 .05126953 .099990848-.0107421879 .17399597-.0107421879 .2919922-.0107421879 .4149933 .1382904 .4149933 .28233338 .4149933 .37335206 .3619995 .4423828 .28199769 .4423828 .23599243 .4423828 .19499207 .41337586 .16499329 .38235475L.23899842 .68333438M.14498902 .30534364C.15098572 .3273468 .15098572 .3293457 .1599884 .3403473 .20899964 .405365 .2539978 .42037965 .27999879 .42037965 .31599427 .42037965 .34298707 .3903656 .34298707 .32633973 .34298707 .26733399 .30999757 .15229798 .2919922 .11428833 .25898744 .04725647 .21299744 .011245728 .17399597 .011245728 .13999939 .011245728 .10699463 .038253786 .10699463 .11227417 .10699463 .13128662 .10699463 .15029907 .12298584 .21331787L.14498902 .30534364Z"/>
<path id="font_2_6" d="M.48599244 .38136292C.48999024 .39537049 .48999024 .39736939 .48999024 .40437318 .48999024 .42237855 .47599793 .43138124 .46099855 .43138124 .45098878 .43138124 .43499757 .42536927 .42599488 .41036988 .42399598 .405365 .41600038 .37435914 .4119873 .35635377 .40499879 .33035279 .397995 .30334474 .3919983 .27633668L.34700013 .09628296C.34298707 .08126831 .2999878 .011245728 .23399353 .011245728 .18299866 .011245728 .17199707 .055267335 .17199707 .0922699 .17199707 .1382904 .18899536 .20030213 .22299195 .28833009 .23899842 .3293457 .24299622 .3403473 .24299622 .36035157 .24299622 .405365 .21099854 .4423828 .16099549 .4423828 .06599426 .4423828 .0289917 .29733277 .0289917 .28833009 .0289917 .27833558 .038986207 .27833558 .040985109 .27833558 .050994874 .27833558 .051986696 .28033448 .056991579 .29634095 .083999637 .3903656 .12399292 .42037965 .1579895 .42037965 .1659851 .42037965 .18299866 .42037965 .18299866 .3883667 .18299866 .36335755 .17298889 .3373413 .1659851 .31834413 .12599182 .21231079 .10798645 .1552887 .10798645 .10827637 .10798645 .019256592 .17098999-.0107421879 .22999573-.0107421879 .2689972-.0107421879 .30299378 .0062561037 .33099366 .03425598 .31799317-.017745972 .30599977-.06674194 .2659912-.11973572 .23999024-.15385437 .20199585-.18309021 .1559906-.18309021 .14199829-.18309021 .09700012-.18005371 .07998657-.14074707 .09599304-.14074707 .10899353-.14074707 .12298584-.1287384 .1329956-.11973572 .14299011-.10673523 .14299011-.08773804 .14299011-.056747438 .115997318-.052734376 .10598755-.052734376 .08299255-.052734376 .049987794-.068740848 .049987794-.11773682 .049987794-.16796875 .09399414-.20507813 .1559906-.20507813 .25898744-.20507813 .3619995-.11373901 .3899994-.00074768069L.48599244 .38136292Z"/>
<path id="font_3_3" d="M.68699648 .32714845C.70199587 .32714845 .72099307 .32714845 .72099307 .34713746 .72099307 .36714173 .70199587 .36714173 .6879883 .36714173H.08898926C.07499695 .36714173 .055999757 .36714173 .055999757 .34713746 .055999757 .32714845 .07499695 .32714845 .08999634 .32714845H.68699648M.6879883 .13284302C.70199587 .13284302 .72099307 .13284302 .72099307 .15284729 .72099307 .17285156 .70199587 .17285156 .68699648 .17285156H.08999634C.07499695 .17285156 .055999757 .17285156 .055999757 .15284729 .055999757 .13284302 .07499695 .13284302 .08898926 .13284302H.6879883Z"/>
<path id="font_2_4" d="M.36698915 .3996582H.45298768C.47299195 .3996582 .48298646 .3996582 .48298646 .41966249 .48298646 .43066407 .47299195 .43066407 .45599366 .43066407H.37298585L.3939972 .5449524C.397995 .5660095 .4119873 .6370239 .41799928 .6490326 .4269867 .66804507 .44400025 .68307498 .46499635 .68307498 .46899415 .68307498 .49499513 .68307498 .5139923 .66503909 .46998597 .661026 .45999146 .6260376 .45999146 .6110382 .45999146 .58802798 .47799684 .57603457 .49699403 .57603457 .522995 .57603457 .5519867 .5980377 .5519867 .6360321 .5519867 .6820679 .5059967 .7050781 .46499635 .7050781 .43099977 .7050781 .36799623 .68707278 .33799745 .58802798 .33198548 .56700137 .32899476 .5569763 .30499269 .43066407H.23599243C.21699524 .43066407 .20599365 .43066407 .20599365 .4116516 .20599365 .3996582 .21499634 .3996582 .23399353 .3996582H.2999878L.22499085 .0048828127C.20698548-.09207153 .18998719-.18309021 .13798523-.18309021 .13398743-.18309021 .10899353-.18309021 .08999634-.16506958 .13598633-.1620636 .14498902-.12606812 .14498902-.111068729 .14498902-.08807373 .1269989-.07606506 .10798645-.07606506 .08198547-.07606506 .052993776-.09806824 .052993776-.13606262 .052993776-.18109131 .09700012-.20507813 .13798523-.20507813 .19299317-.20507813 .23298645-.14607239 .25099183-.108062747 .2829895-.04508972 .30599977 .07583618 .30699159 .082839969L.36698915 .3996582Z"/>
<path id="font_3_1" d="M.33099366-.2400055C.33099366-.23701477 .33099366-.23500061 .31399537-.21800232 .18899536-.0920105 .15699768 .09700012 .15699768 .25 .15699768 .42399598 .19499207 .59799197 .31799317 .72299197 .33099366 .73498538 .33099366 .7369995 .33099366 .73999026 .33099366 .746994 .32699586 .75 .32099916 .75 .31098939 .75 .22099304 .6819916 .1619873 .5549927 .11099243 .44499208 .09899902 .33399964 .09899902 .25 .09899902 .17199707 .10998535 .050994874 .16499329-.06201172 .22499085-.18501282 .31098939-.25 .32099916-.25 .32699586-.25 .33099366-.24700928 .33099366-.2400055Z"/>
<path id="font_2_5" d="M.20599365 .3996582H.2999878C.31999208 .3996582 .32998658 .3996582 .32998658 .41966249 .32998658 .43066407 .31999208 .43066407 .3019867 .43066407H.21398926C.25 .5724945 .25498963 .59246829 .25498963 .59846499 .25498963 .61546328 .24299622 .62545779 .22599793 .62545779 .22299195 .62545779 .19499207 .62446597 .18598938 .58947756L.14698792 .43066407H.052993776C.032989503 .43066407 .022994996 .43066407 .022994996 .4116516 .022994996 .3996582 .0309906 .3996582 .050994874 .3996582H.13899231C.066986087 .11608887 .06298828 .099121097 .06298828 .08114624 .06298828 .02722168 .100997928-.0107421879 .15499878-.0107421879 .25698854-.0107421879 .31399537 .13505554 .31399537 .14305115 .31399537 .1530304 .30599977 .1530304 .3019867 .1530304 .29299928 .1530304 .2919922 .15003968 .2869873 .13905335 .24398804 .035217287 .19099427 .011245728 .15699768 .011245728 .13598633 .011245728 .12599182 .024230957 .12599182 .057174684 .12599182 .08114624 .12799073 .088134769 .13198853 .10510254L.20599365 .3996582Z"/>
<path id="font_3_2" d="M.2889862 .25C.2889862 .32798768 .27799989 .44898988 .22299195 .56199648 .16299439 .68499758 .07699585 .75 .066986087 .75 .06098938 .75 .056991579 .74598696 .056991579 .73999026 .056991579 .7369995 .056991579 .73498538 .07598877 .71699526 .17399597 .6179962 .23098755 .45899964 .23098755 .25 .23098755 .07899475 .19400025-.09700012 .069992069-.2230072 .056991579-.23500061 .056991579-.23701477 .056991579-.2400055 .056991579-.2460022 .06098938-.25 .066986087-.25 .07699585-.25 .16699219-.18200684 .22599793-.055007936 .2769928 .054992677 .2889862 .16600037 .2889862 .25Z"/>
</defs>
<path transform="matrix(1.00003,0,0,-1.00003,-37.757669,163.19441)" stroke-width=".19925" stroke-linecap="butt" stroke-miterlimit="10" stroke-linejoin="miter" fill="none" stroke="#7f807f" d=""/>
<path transform="matrix(1.00003,0,0,-1.00003,-37.757669,163.19441)" stroke-width=".19925" stroke-linecap="butt" stroke-miterlimit="10" stroke-linejoin="miter" fill="none" stroke="#7f807f" d=""/>
<path transform="matrix(1.00003,0,0,-1.00003,-37.757669,163.19441)" stroke-width=".3985" stroke-linecap="butt" stroke-miterlimit="10" stroke-linejoin="miter" fill="none" stroke="#000000" d="M38.85382 23.05608H231.13042"/>
<path transform="matrix(1.00003,0,0,-1.00003,193.3797,140.13764)" d="M1.99252 0-1.19551 1.59401 0 0-1.19551-1.59401"/>
<path transform="matrix(1.00003,0,0,-1.00003,-37.757669,163.19441)" stroke-width=".3985" stroke-linecap="butt" stroke-miterlimit="10" stroke-linejoin="miter" fill="none" stroke="#000000" d="M66.60655 0V159.40004"/>
<path transform="matrix(0,-1.00003,-1.00003,-0,28.850884,3.7895814)" d="M1.99252 0-1.19551 1.59401 0 0-1.19551-1.59401"/>
<g clip-path="url(#clip_1)">
<path transform="matrix(1.00003,0,0,-1.00003,-37.757669,163.19441)" d="M94.35928 23.05608V84.15468L108.23564 79.97575 122.11201 78.39067V23.05608Z" fill="#4dff4d" fill-opacity=".7"/>
<path transform="matrix(1.00003,0,0,-1.00003,-37.757669,163.19441)" d="M122.11201 23.05608V78.39067L149.86475 86.46028 177.61748 115.2804V23.05608Z" fill="#ff9933" fill-opacity=".7"/>
<path transform="matrix(1.00003,0,0,-1.00003,-37.757669,163.19441)" stroke-width=".3985" stroke-linecap="butt" stroke-dasharray="2.98883,2.98883" stroke-miterlimit="10" stroke-linejoin="miter" fill="none" stroke="#000000" d="M94.35928 13.83363V84.15468"/>
<path transform="matrix(1.00003,0,0,-1.00003,-37.757669,163.19441)" stroke-width=".3985" stroke-linecap="butt" stroke-dasharray="2.98883,2.98883" stroke-miterlimit="10" stroke-linejoin="miter" fill="none" stroke="#000000" d="M122.11201 13.83363V78.39067"/>
<path transform="matrix(1.00003,0,0,-1.00003,-37.757669,163.19441)" stroke-width=".3985" stroke-linecap="butt" stroke-dasharray="2.98883,2.98883" stroke-miterlimit="10" stroke-linejoin="miter" fill="none" stroke="#000000" d="M177.61748 13.83363V115.2804"/>
<use data-text="c" xlink:href="#font_2_3" transform="matrix(9.962899,0,0,-9.962899,54.449106,160.72834)"/>
<use data-text="a" xlink:href="#font_2_1" transform="matrix(9.962899,0,0,-9.962899,81.724918,160.72834)"/>
<use data-text="b" xlink:href="#font_2_2" transform="matrix(9.962899,0,0,-9.962899,148.82892,160.65933)"/>
<use data-text="y" xlink:href="#font_2_6" transform="matrix(9.962899,0,0,-9.962899,121.95312,13.51091)"/>
<use data-text="=" xlink:href="#font_3_3" transform="matrix(9.962899,0,0,-9.962899,129.96236,13.51091)"/>
<use data-text="f" xlink:href="#font_2_4" transform="matrix(9.962899,0,0,-9.962899,140.47867,13.51091)"/>
<use data-text="(" xlink:href="#font_3_1" transform="matrix(9.962899,0,0,-9.962899,146.42885,13.51091)"/>
<use data-text="t" xlink:href="#font_2_5" transform="matrix(9.962899,0,0,-9.962899,150.30298,13.51091)"/>
<use data-text=")" xlink:href="#font_3_2" transform="matrix(9.962899,0,0,-9.962899,153.90108,13.51091)"/>
<path transform="matrix(1.00003,0,0,-1.00003,-37.757669,163.19441)" stroke-width="1.59404" stroke-linecap="butt" stroke-miterlimit="10" stroke-linejoin="miter" fill="none" stroke="#0000ff" d="M0 114.09991 1.08777 114.32582 2.17557 114.52663 3.26335 114.70276 4.35115 114.85464 5.43893 114.9827 6.52673 115.08731 7.61453 115.16895 8.70232 115.22798 9.79012 115.26485 10.8779 115.27994 11.9657 115.27371 13.0535 115.24655 14.1413 115.1989 15.2291 115.13116 16.31688 115.04373 17.40468 114.93706 18.49246 114.81155 19.58028 114.6676 20.66808 114.50568 21.75584 114.32614 22.84366 114.12943 23.93144 113.91595 25.01924 113.68616 26.10704 113.44044 27.19482 113.1792 28.28264 112.90286 29.37042 112.61188 30.45822 112.30661 31.54602 111.9875 32.6338 111.655 33.72162 111.30945 34.8094 110.95134 35.8972 110.58104 36.98499 110.19897 38.07278 109.80559 39.1606 109.40126 40.24838 108.98642 41.33618 108.56151 42.42397 108.1269 43.51176 107.68304 44.59958 107.23035 45.68736 106.7692 46.77516 106.30006 47.86295 105.82332 48.95074 105.33943 50.03854 104.84875 51.12634 104.35173 52.21414 103.84879 53.30193 103.34035 54.38972 102.8268 55.47752 102.30856 56.56532 101.78607 57.65312 101.25975 58.7409 100.73001 59.8287 100.19722 60.9165 99.66185 62.0043 99.12431 63.09209 98.585 64.17989 98.04434 65.26768 97.50276 66.35548 96.96068 67.44327 96.41849 68.53107 95.87662 69.61887 95.33548 70.70668 94.79549 71.79445 94.25711 72.88226 93.72066 73.97005 93.18663 75.05785 92.65543 76.14565 92.12749 77.23343 91.60316 78.32124 91.08292 79.40903 90.56714 80.49683 90.05632 81.58461 89.55077 82.67241 89.05095 83.76022 88.55734 84.848 88.07024 85.9358 87.59015 87.02359 87.1174 88.11139 86.65251 89.1992 86.19592 90.28699 85.74791 91.37479 85.30896 92.46257 84.87955 93.55037 84.46 94.63817 84.05077 95.72597 83.65227 96.81377 83.26495 97.90155 82.88916 98.98935 82.52536 100.07715 82.17395 101.16495 81.8354 102.25275 81.51004 103.34053 81.19833 104.42833 80.9007 105.51613 80.61757 106.60393 80.34932 107.69173 80.09636 108.77951 79.85918 109.86731 79.6381 110.95511 79.43361 112.04291 79.2461 113.13069 79.07597 114.21849 78.92369 115.30629 78.78961 116.39409 78.67418 117.48187 78.57784 118.56966 78.50096 119.65747 78.44398 120.74527 78.40732 121.83305 78.39136 122.92085 78.39658 124.00864 78.42334 125.09644 78.47206 126.18422 78.54323 127.27202 78.63718 128.35982 78.75435 129.4476 78.8952 130.5354 79.06009 131.62319 79.24945 132.71099 79.46375 133.79878 79.70331 134.88657 79.96858 135.97437 80.26006 137.06215 80.57808 138.14995 80.923 139.23775 81.29538 140.32553 81.69563 141.41333 82.12401 142.50112 82.58105 143.58892 83.0672 144.6767 83.5828 145.7645 84.12828 146.8523 84.70406 147.94008 85.3106 149.02788 85.94826 150.11566 86.61746 151.20346 87.31871 152.29125 88.05229 153.37903 88.81868 154.46683 89.61832 155.55461 90.45158 156.64241 91.3189 157.73021 92.22069 158.818 93.1574 159.90579 94.12938 160.99358 95.13708 162.08138 96.18095 163.16916 97.26137 164.25696 98.37875 165.34476 99.53354 166.43254 100.72612 167.52034 101.95694 168.60813 103.22638 169.69593 104.53491 170.78372 105.88289 171.8715 107.27075 172.9593 108.69893 174.04709 110.16782 175.13489 111.67784 176.22267 113.22943 177.31047 114.823 178.39827 116.45894 179.48606 118.1377 180.57386 119.85966 181.66164 121.62529 182.74944 123.43495 183.83722 125.2891 184.925 127.18813 186.0128 129.13245 187.10059 131.12248 188.18839 133.15866 189.27619 135.24141 190.36397 137.37114 191.45177 139.5482 192.53955 141.77313 193.62735 144.04624 194.71514 146.36798 195.80294 148.7388 196.89073 151.15908 197.97852 153.62923 199.06632 156.1497 200.1541 158.72089 201.2419 161.34317 202.3297 164.01706 203.41748 166.74289 204.50528 169.52115 205.59307 172.35211 206.68087 175.23635 207.76865 178.17427 208.85645 181.16622 209.94425 184.21251 211.03203 187.31383 212.11983 190.47042 213.20761 193.6827 214.29541 196.95108 215.3832 200.27606 216.47098 203.65798"/>
</g>
<use data-text="t" xlink:href="#font_2_5" transform="matrix(9.962899,0,0,-9.962899,188.28812,136.61461)"/>
<use data-text="y" xlink:href="#font_2_6" transform="matrix(9.962899,0,0,-9.962899,32.38244,9.583801)"/>
</svg>
