<svg xmlns="http://www.w3.org/2000/svg" xmlns:xlink="http://www.w3.org/1999/xlink" xmlns:inkscape="http://www.inkscape.org/namespaces/inkscape" version="1.1" width="197" height="165" viewBox="0 0 197 165">
<defs>
<clipPath id="clip_1">
<path transform="matrix(1.00005,0,0,-1.00009,1.0961456,168.0687)" d="M0 4.86928H194.27216V166.25652H0Z"/>
</clipPath>
<path id="font_2_1" d="M.37298585 .37835694C.35499574 .41537477 .32598878 .4423828 .2809906 .4423828 .1639862 .4423828 .039993287 .29533387 .039993287 .14929199 .039993287 .055267335 .09498596-.0107421879 .17298889-.0107421879 .19299317-.0107421879 .24299622-.0067443849 .30299378 .06427002 .31098939 .022247315 .34599305-.0107421879 .3939972-.0107421879 .42900086-.0107421879 .45199586 .012252808 .46798707 .044265748 .4850006 .08027649 .49798585 .14129639 .49798585 .14329529 .49798585 .1532898 .4889984 .1532898 .48599244 .1532898 .47599793 .1532898 .47499085 .14929199 .47200013 .13528443 .45498658 .07026672 .43699647 .011245728 .3959961 .011245728 .36898805 .011245728 .3659973 .037261964 .3659973 .057266237 .3659973 .07926941 .36799623 .08728027 .3789978 .13128662 .3899994 .17329407 .3919983 .18330384 .40098573 .22131348L.43699647 .36135865C.44400025 .38935853 .44400025 .39135743 .44400025 .39537049 .44400025 .41236878 .43199159 .42237855 .4149933 .42237855 .3909912 .42237855 .37599183 .4003601 .37298585 .37835694M.30799867 .119277957C.30299378 .10127258 .30299378 .09927368 .28799439 .08227539 .24398804 .027252198 .20298767 .011245728 .1749878 .011245728 .125 .011245728 .11099243 .06626892 .11099243 .105285648 .11099243 .1552887 .14299011 .27833558 .1659851 .32434083 .19699097 .38336183 .24198914 .42037965 .28199769 .42037965 .34700013 .42037965 .36099244 .3383484 .36099244 .33235169 .36099244 .32633973 .35899354 .32034303 .35798646 .31533814L.30799867 .119277957Z"/>
<path id="font_2_5" d="M.33399964 .30233766C.33999635 .32835389 .36299134 .42037965 .43299867 .42037965 .43798829 .42037965 .46199037 .42037965 .48298646 .40734864 .45498658 .402359 .43499757 .37734986 .43499757 .35334779 .43499757 .33735658 .44599916 .31835938 .47299195 .31835938 .49499513 .31835938 .5269928 .3363495 .5269928 .37635804 .5269928 .42837525 .46798707 .4423828 .43399049 .4423828 .37599183 .4423828 .34098817 .38935853 .32899476 .36634828 .3039856 .43237306 .25 .4423828 .22099304 .4423828 .116989139 .4423828 .05999756 .3133545 .05999756 .28834535 .05999756 .27833558 .069992069 .27833558 .07199097 .27833558 .07998657 .27833558 .08299255 .28033448 .084991458 .28933717 .11898804 .39535523 .18499756 .42037965 .21899414 .42037965 .23799134 .42037965 .272995 .4113617 .272995 .35334779 .272995 .32235719 .2559967 .25532533 .21899414 .11528015 .20298767 .053268434 .16799927 .011245728 .12399292 .011245728 .117996219 .011245728 .09498596 .011245728 .07398987 .024276734 .09899902 .029266358 .12098694 .05027771 .12098694 .07827759 .12098694 .105270389 .09899902 .11328125 .083999637 .11328125 .053985597 .11328125 .0289917 .08728027 .0289917 .055267335 .0289917 .009246826 .07899475-.0107421879 .12298584-.0107421879 .18899536-.0107421879 .22499085 .059280397 .22799683 .0652771 .23999024 .028274537 .27598573-.0107421879 .33599855-.0107421879 .43899537-.0107421879 .49598695 .118270877 .49598695 .14328003 .49598695 .1532898 .4869995 .1532898 .48399354 .1532898 .47499085 .1532898 .47299195 .14929199 .47099305 .14228821 .43798829 .03527832 .36999513 .011245728 .33799745 .011245728 .29899598 .011245728 .2829895 .043273927 .2829895 .07727051 .2829895 .09927368 .2889862 .121276859 .2999878 .16529846L.33399964 .30233766Z"/>
<path id="font_3_3" d="M.40899659 .23046875H.6879883C.70199587 .23046875 .72099307 .23046875 .72099307 .25045777 .72099307 .27046205 .70199587 .27046205 .6879883 .27046205H.40899659V.5500183C.40899659 .56399539 .40899659 .5830078 .3889923 .5830078 .36898805 .5830078 .36898805 .56399539 .36898805 .5500183V.27046205H.08898926C.07499695 .27046205 .055999757 .27046205 .055999757 .25045777 .055999757 .23046875 .07499695 .23046875 .08898926 .23046875H.36898805V-.05000305C.36898805-.06401062 .36898805-.08300781 .3889923-.08300781 .40899659-.08300781 .40899659-.06401062 .40899659-.05000305V.23046875Z"/>
<path id="font_2_3" d="M.2869873 .68333438C.2869873 .6843262 .2869873 .69433596 .27398683 .69433596 .25099183 .69433596 .17799378 .6863251 .1519928 .6843262 .14399719 .68333438 .1329956 .6823273 .1329956 .6643219 .1329956 .6523285 .14199829 .6523285 .15699768 .6523285 .20498657 .6523285 .20698548 .6453247 .20698548 .6353302L.20399475 .6153412 .05899048 .039260866C.054992677 .025253296 .054992677 .023254395 .054992677 .01725769 .054992677-.0057525637 .07499695-.0107421879 .083999637-.0107421879 .099990848-.0107421879 .115997318 .0012512207 .12098694 .015258789L.13999939 .091278079 .1619873 .18130493C.16799927 .2033081 .17399597 .22531128 .1789856 .24832154 .18099976 .25431825 .18899536 .28733827 .18998719 .29333497 .19299317 .30233766 .22399903 .35835267 .2579956 .38536073 .27999879 .4013672 .31098939 .42037965 .35398866 .42037965 .39698792 .42037965 .4079895 .3863678 .4079895 .35035707 .4079895 .29634095 .36999513 .18730164 .34599305 .12628174 .33799745 .103271488 .33299256 .091278079 .33299256 .0712738 .33299256 .024261475 .36799623-.0107421879 .4149933-.0107421879 .5089874-.0107421879 .54599 .13528443 .54599 .14329529 .54599 .1532898 .5369873 .1532898 .5339966 .1532898 .5239868 .1532898 .5239868 .15029907 .5189972 .13528443 .5039978 .08227539 .47200013 .011245728 .4169922 .011245728 .3999939 .011245728 .3929901 .021255494 .3929901 .044265748 .3929901 .0692749 .4019928 .09327698 .41099549 .11528015 .4269867 .15829468 .47200013 .2773285 .47200013 .3353424 .47200013 .4003601 .43199159 .4423828 .35699464 .4423828 .2939911 .4423828 .24598694 .41137696 .20899964 .36535646L.2869873 .68333438Z"/>
<path id="font_2_6" d="M.48599244 .38136292C.48999024 .39537049 .48999024 .39736939 .48999024 .40437318 .48999024 .42237855 .47599793 .43138124 .46099855 .43138124 .45098878 .43138124 .43499757 .42536927 .42599488 .41036988 .42399598 .405365 .41600038 .37435914 .4119873 .35635377 .40499879 .33035279 .397995 .30334474 .3919983 .27633668L.34700013 .09628296C.34298707 .08126831 .2999878 .011245728 .23399353 .011245728 .18299866 .011245728 .17199707 .055267335 .17199707 .0922699 .17199707 .1382904 .18899536 .20030213 .22299195 .28833009 .23899842 .3293457 .24299622 .3403473 .24299622 .36035157 .24299622 .405365 .21099854 .4423828 .16099549 .4423828 .06599426 .4423828 .0289917 .29733277 .0289917 .28833009 .0289917 .27833558 .038986207 .27833558 .040985109 .27833558 .050994874 .27833558 .051986696 .28033448 .056991579 .29634095 .083999637 .3903656 .12399292 .42037965 .1579895 .42037965 .1659851 .42037965 .18299866 .42037965 .18299866 .3883667 .18299866 .36335755 .17298889 .3373413 .1659851 .31834413 .12599182 .21231079 .10798645 .1552887 .10798645 .10827637 .10798645 .019256592 .17098999-.0107421879 .22999573-.0107421879 .2689972-.0107421879 .30299378 .0062561037 .33099366 .03425598 .31799317-.017745972 .30599977-.06674194 .2659912-.11973572 .23999024-.15385437 .20199585-.18309021 .1559906-.18309021 .14199829-.18309021 .09700012-.18005371 .07998657-.14074707 .09599304-.14074707 .10899353-.14074707 .12298584-.1287384 .1329956-.11973572 .14299011-.10673523 .14299011-.08773804 .14299011-.056747438 .115997318-.052734376 .10598755-.052734376 .08299255-.052734376 .049987794-.068740848 .049987794-.11773682 .049987794-.16796875 .09399414-.20507813 .1559906-.20507813 .25898744-.20507813 .3619995-.11373901 .3899994-.00074768069L.48599244 .38136292Z"/>
<path id="font_3_4" d="M.68699648 .32714845C.70199587 .32714845 .72099307 .32714845 .72099307 .34713746 .72099307 .36714173 .70199587 .36714173 .6879883 .36714173H.08898926C.07499695 .36714173 .055999757 .36714173 .055999757 .34713746 .055999757 .32714845 .07499695 .32714845 .08999634 .32714845H.68699648M.6879883 .13284302C.70199587 .13284302 .72099307 .13284302 .72099307 .15284729 .72099307 .17285156 .70199587 .17285156 .68699648 .17285156H.08999634C.07499695 .17285156 .055999757 .17285156 .055999757 .15284729 .055999757 .13284302 .07499695 .13284302 .08898926 .13284302H.6879883Z"/>
<path id="font_2_2" d="M.36698915 .3996582H.45298768C.47299195 .3996582 .48298646 .3996582 .48298646 .41966249 .48298646 .43066407 .47299195 .43066407 .45599366 .43066407H.37298585L.3939972 .5449524C.397995 .5660095 .4119873 .6370239 .41799928 .6490326 .4269867 .66804507 .44400025 .68307498 .46499635 .68307498 .46899415 .68307498 .49499513 .68307498 .5139923 .66503909 .46998597 .661026 .45999146 .6260376 .45999146 .6110382 .45999146 .58802798 .47799684 .57603457 .49699403 .57603457 .522995 .57603457 .5519867 .5980377 .5519867 .6360321 .5519867 .6820679 .5059967 .7050781 .46499635 .7050781 .43099977 .7050781 .36799623 .68707278 .33799745 .58802798 .33198548 .56700137 .32899476 .5569763 .30499269 .43066407H.23599243C.21699524 .43066407 .20599365 .43066407 .20599365 .4116516 .20599365 .3996582 .21499634 .3996582 .23399353 .3996582H.2999878L.22499085 .0048828127C.20698548-.09207153 .18998719-.18309021 .13798523-.18309021 .13398743-.18309021 .10899353-.18309021 .08999634-.16506958 .13598633-.1620636 .14498902-.12606812 .14498902-.111068729 .14498902-.08807373 .1269989-.07606506 .10798645-.07606506 .08198547-.07606506 .052993776-.09806824 .052993776-.13606262 .052993776-.18109131 .09700012-.20507813 .13798523-.20507813 .19299317-.20507813 .23298645-.14607239 .25099183-.108062747 .2829895-.04508972 .30599977 .07583618 .30699159 .082839969L.36698915 .3996582Z"/>
<path id="font_3_1" d="M.33099366-.2400055C.33099366-.23701477 .33099366-.23500061 .31399537-.21800232 .18899536-.0920105 .15699768 .09700012 .15699768 .25 .15699768 .42399598 .19499207 .59799197 .31799317 .72299197 .33099366 .73498538 .33099366 .7369995 .33099366 .73999026 .33099366 .746994 .32699586 .75 .32099916 .75 .31098939 .75 .22099304 .6819916 .1619873 .5549927 .11099243 .44499208 .09899902 .33399964 .09899902 .25 .09899902 .17199707 .10998535 .050994874 .16499329-.06201172 .22499085-.18501282 .31098939-.25 .32099916-.25 .32699586-.25 .33099366-.24700928 .33099366-.2400055Z"/>
<path id="font_2_4" d="M.20599365 .3996582H.2999878C.31999208 .3996582 .32998658 .3996582 .32998658 .41966249 .32998658 .43066407 .31999208 .43066407 .3019867 .43066407H.21398926C.25 .5724945 .25498963 .59246829 .25498963 .59846499 .25498963 .61546328 .24299622 .62545779 .22599793 .62545779 .22299195 .62545779 .19499207 .62446597 .18598938 .58947756L.14698792 .43066407H.052993776C.032989503 .43066407 .022994996 .43066407 .022994996 .4116516 .022994996 .3996582 .0309906 .3996582 .050994874 .3996582H.13899231C.066986087 .11608887 .06298828 .099121097 .06298828 .08114624 .06298828 .02722168 .100997928-.0107421879 .15499878-.0107421879 .25698854-.0107421879 .31399537 .13505554 .31399537 .14305115 .31399537 .1530304 .30599977 .1530304 .3019867 .1530304 .29299928 .1530304 .2919922 .15003968 .2869873 .13905335 .24398804 .035217287 .19099427 .011245728 .15699768 .011245728 .13598633 .011245728 .12599182 .024230957 .12599182 .057174684 .12599182 .08114624 .12799073 .088134769 .13198853 .10510254L.20599365 .3996582Z"/>
<path id="font_3_2" d="M.2889862 .25C.2889862 .32798768 .27799989 .44898988 .22299195 .56199648 .16299439 .68499758 .07699585 .75 .066986087 .75 .06098938 .75 .056991579 .74598696 .056991579 .73999026 .056991579 .7369995 .056991579 .73498538 .07598877 .71699526 .17399597 .6179962 .23098755 .45899964 .23098755 .25 .23098755 .07899475 .19400025-.09700012 .069992069-.2230072 .056991579-.23500061 .056991579-.23701477 .056991579-.2400055 .056991579-.2460022 .06098938-.25 .066986087-.25 .07699585-.25 .16699219-.18200684 .22599793-.055007936 .2769928 .054992677 .2889862 .16600037 .2889862 .25Z"/>
</defs>
<path transform="matrix(1.00005,0,0,-1.00009,1.0961456,168.0687)" stroke-width=".19925" stroke-linecap="butt" stroke-miterlimit="10" stroke-linejoin="miter" fill="none" stroke="#7f807f" d=""/>
<path transform="matrix(1.00005,0,0,-1.00009,1.0961456,168.0687)" stroke-width=".19925" stroke-linecap="butt" stroke-miterlimit="10" stroke-linejoin="miter" fill="none" stroke="#7f807f" d=""/>
<path transform="matrix(1.00005,0,0,-1.00009,1.0961456,168.0687)" stroke-width=".3985" stroke-linecap="butt" stroke-miterlimit="10" stroke-linejoin="miter" fill="none" stroke="#000000" d="M0 50.97992H192.27964"/>
<path transform="matrix(1.00005,0,0,-1.00009,193.38538,117.08418)" d="M1.99252 0-1.19551 1.59401 0 0-1.19551-1.59401"/>
<path transform="matrix(1.00005,0,0,-1.00009,1.0961456,168.0687)" stroke-width=".3985" stroke-linecap="butt" stroke-miterlimit="10" stroke-linejoin="miter" fill="none" stroke="#000000" d="M64.75739 4.86928V164.26399"/>
<path transform="matrix(0,-1.00009,-1.00005,-0,65.85677,3.789917)" d="M1.99252 0-1.19551 1.59401 0 0-1.19551-1.59401"/>
<g clip-path="url(#clip_1)">
<path transform="matrix(1.00005,0,0,-1.00009,1.0961456,168.0687)" d="M80.94673 50.97992V131.67354L97.13608 115.53482 113.32542 97.09056 129.51477 83.25737V50.97992Z" fill="#4dff4d" fill-opacity=".7"/>
<path transform="matrix(1.00005,0,0,-1.00009,1.0961456,168.0687)" d="M129.51477 50.97992V83.25737L137.60944 80.23135 145.70412 80.95183V50.97992Z" fill="#ff9933" fill-opacity=".7"/>
<path transform="matrix(1.00005,0,0,-1.00009,1.0961456,168.0687)" stroke-width=".3985" stroke-linecap="butt" stroke-dasharray="2.98883,2.98883" stroke-miterlimit="10" stroke-linejoin="miter" fill="none" stroke="#000000" d="M80.94673 47.52162V131.67354"/>
<path transform="matrix(1.00005,0,0,-1.00009,1.0961456,168.0687)" stroke-width=".3985" stroke-linecap="butt" stroke-dasharray="2.98883,2.98883" stroke-miterlimit="10" stroke-linejoin="miter" fill="none" stroke="#000000" d="M129.51477 47.52162V83.25737"/>
<path transform="matrix(1.00005,0,0,-1.00009,1.0961456,168.0687)" stroke-width=".3985" stroke-linecap="butt" stroke-dasharray="2.98883,2.98883" stroke-miterlimit="10" stroke-linejoin="miter" fill="none" stroke="#000000" d="M145.70412 47.52162V80.95183"/>
<use data-text="a" xlink:href="#font_2_1" transform="matrix(9.963098,0,0,-9.963496,79.41406,128.45214)"/>
<use data-text="x" xlink:href="#font_2_5" transform="matrix(9.963098,0,0,-9.963496,127.77047,128.45214)"/>
<use data-text="x" xlink:href="#font_2_5" transform="matrix(9.963098,0,0,-9.963496,144.71532,128.66016)"/>
<use data-text="+" xlink:href="#font_3_3" transform="matrix(9.963098,0,0,-9.963496,152.62372,128.66016)"/>
<use data-text="h" xlink:href="#font_2_3" transform="matrix(9.963098,0,0,-9.963496,162.5872,128.66016)"/>
<use data-text="y" xlink:href="#font_2_6" transform="matrix(9.963098,0,0,-9.963496,138.61002,36.568849)"/>
<use data-text="=" xlink:href="#font_3_4" transform="matrix(9.963098,0,0,-9.963496,146.61942,36.568849)"/>
<use data-text="f" xlink:href="#font_2_2" transform="matrix(9.963098,0,0,-9.963496,157.13596,36.568849)"/>
<use data-text="(" xlink:href="#font_3_1" transform="matrix(9.963098,0,0,-9.963496,163.08625,36.568849)"/>
<use data-text="t" xlink:href="#font_2_4" transform="matrix(9.963098,0,0,-9.963496,166.96143,36.568849)"/>
<use data-text=")" xlink:href="#font_3_2" transform="matrix(9.963098,0,0,-9.963496,170.55861,36.568849)"/>
<path transform="matrix(1.00005,0,0,-1.00009,1.0961456,168.0687)" stroke-width="1.59404" stroke-linecap="butt" stroke-miterlimit="10" stroke-linejoin="miter" fill="none" stroke="#0000ff" d="M9.71361 0C9.71361 0 10.96596 7.23596 11.44695 9.92946 11.92793 12.62294 12.69931 16.84193 13.1803 19.41281 13.6613 21.98369 14.43268 26.00797 14.91367 28.45859 15.39465 30.9092 16.16603 34.74251 16.64702 37.07521 17.12802 39.40793 17.8994 43.05406 18.38039 45.27122 18.86137 47.48839 19.63275 50.9511 20.11374 53.05508 20.59474 55.15906 21.36612 58.44214 21.8471 60.43529 22.3281 62.42844 23.09947 65.53568 23.58046 67.42033 24.06146 69.30501 24.83284 72.24017 25.31383 74.0187 25.79482 75.79726 26.5662 78.56413 27.04718 80.2389 27.52818 81.91368 28.29956 84.51604 28.78055 86.08939 29.26154 87.66275 30.03291 90.10437 30.5139 91.57869 30.99489 93.05301 31.76628 95.33765 32.24727 96.71527 32.72826 98.09288 33.49963 100.22433 33.98062 101.5076 34.46161 102.79086 35.23299 104.77293 35.71397 105.96422 36.19496 107.15549 36.96635 108.99191 37.44734 110.09357 37.92833 111.19522 38.6997 112.88982 39.18071 113.90419 39.6617 114.91856 40.43307 116.47505 40.91406 117.40451 41.39505 118.33395 42.16643 119.75616 42.64743 120.60304 43.12842 121.44994 43.8998 122.74164 44.38078 123.50832 44.86177 124.275 45.63315 125.43994 46.11415 126.12875 46.59514 126.81757 47.36652 127.85957 47.8475 128.4729 48.32849 129.08623 49.09987 130.00905 49.58087 130.54921 50.06186 131.08939 50.83324 131.89679 51.31422 132.36618 51.79521 132.83557 52.56659 133.53134 53.04759 133.9323 53.52858 134.33325 54.29996 134.92119 54.78094 135.25608 55.26193 135.59096 56.03331 136.0748 56.5143 136.34598 56.9953 136.61714 57.76668 137.00069 58.24767 137.2105 58.72865 137.4203 59.50003 137.70735 59.98102 137.85814 60.46202 138.00893 61.2334 138.20323 61.71439 138.29738 62.19537 138.39153 62.96677 138.49686 63.44775 138.5367 63.92876 138.57654 64.70013 138.59673 65.18112 138.58464 65.66211 138.57257 66.43349 138.51129 66.91447 138.44963 67.39548 138.38796 68.16685 138.24903 68.64784 138.14012 69.12883 138.03124 69.9002 137.81847 70.3812 137.6647 70.8622 137.51093 71.63358 137.22812 72.11456 137.03183 72.59555 136.83554 73.36693 136.48642 73.84792 136.24997 74.3289 136.01352 75.1003 135.60189 75.58128 135.32762 76.06227 135.05336 76.83365 134.58301 77.31464 134.27329 77.79562 133.96358 78.56702 133.43825 79.048 133.09545 79.52899 132.75264 80.30037 132.17612 80.78136 131.80257 81.26234 131.42903 82.03372 130.80512 82.51472 130.40319 82.99571 130.00127 83.76709 129.33371 84.24808 128.90576 84.72906 128.47782 85.50044 127.77039 85.98145 127.31877 86.46243 126.86714 87.23381 126.12367 87.7148 125.65074 88.19579 125.17781 88.96716 124.40201 89.44817 123.9101 89.92915 123.4182 90.70053 122.6139 91.18152 122.1054 91.6625 121.5969 92.4339 120.76787 92.9149 120.24512 93.39589 119.72237 94.16727 118.87236 94.64825 118.33772 95.12924 117.80309 95.90062 116.93591 96.3816 116.39174 96.86261 115.84756 97.63399 114.96701 98.11497 114.41563 98.59596 113.86426 99.36734 112.974 99.84833 112.4178 100.32933 111.8616 101.10071 110.96555 101.5817 110.4069 102.06268 109.84825 102.83406 108.95015 103.31505 108.39139 103.79605 107.83263 104.56741 106.93622 105.0484 106.37967 105.52939 105.82312 106.30077 104.93213 106.78175 104.3802 107.26276 103.82826 108.03413 102.94662 108.51512 102.40164 108.99611 101.85667 109.76749 100.98798 110.24847 100.4523 110.72948 99.91661 111.50085 99.06477 111.98184 98.54079 112.46283 98.01678 113.2342 97.1856 113.7152 96.6756 114.19618 96.16562 114.96758 95.35872 115.44856 94.8651 115.92955 94.37148 116.70093 93.59277 117.18192 93.11789 117.6629 92.643 118.4343 91.89629 118.91528 91.44249 119.39627 90.9887 120.16765 90.27756 120.64864 89.84721 121.12962 89.41685 121.901 88.74525 122.382 88.34071 122.86299 87.93617 123.63437 87.30788 124.11536 86.93147 124.59634 86.55507 125.36772 85.97375 125.84872 85.62785 126.32971 85.28197 127.10109 84.75151 127.58208 84.4385 128.06307 84.12549 128.83443 83.64961 129.31543 83.37181 129.79642 83.09401 130.5678 82.67645 131.04878 82.43623 131.52977 82.19601 132.30115 81.8407 132.78215 81.64041 133.26314 81.44012 134.03452 81.1507 134.5155 80.99268 134.99649 80.83467 135.76787 80.61491 136.24887 80.50156 136.72986 80.38818 137.50124 80.24199 137.98223 80.17564 138.46321 80.10928 139.23459 80.04028 139.71558 80.02327 140.19658 80.00626 140.96796 80.01831 141.44895 80.05302 141.92993 80.08772 142.70131 80.18466 143.1823 80.27344 143.6633 80.3622 144.43468 80.54767 144.91567 80.69286 145.39665 80.83803 146.16803 81.1159 146.64902 81.31987 147.13002 81.52383 147.9014 81.89789 148.38239 82.163 148.86338 82.4281 149.63475 82.90205 150.11574 83.23064 150.59674 83.55923 151.36812 84.13689 151.8491 84.53133 152.3301 84.92575 153.10147 85.61087 153.58246 86.07352 154.06346 86.53616 154.83483 87.33257 155.31581 87.86577 155.7968 88.39899 156.56818 89.31041 157.04917 89.91653 157.53015 90.52264 158.30155 91.55289 158.78253 92.23427 159.26352 92.91565 160.0349 94.0685 160.51589 94.8275 160.99687 95.5865 161.76827 96.86574 162.24925 97.70471 162.73024 98.5437 163.50162 99.95308 163.9826 100.8744 164.4636 101.79575 165.23497 103.33904 165.71598 104.34505 166.19696 105.35107 166.96834 107.03206 167.44933 108.12512 167.93032 109.2182 168.70169 111.04068 169.1827 112.22316 169.66368 113.40562 170.43506 115.37338 170.91605 116.64761 171.39704 117.92184 172.16841 120.0386 172.64942 121.40694 173.1304 122.77528 173.90178 125.04492 174.38277 126.50974 174.86376 127.97455 175.63513 130.40071 176.11614 131.96436 176.59712 133.528 177.3685 136.11457 177.84949 137.7794 178.33048 139.44423 179.10184 142.19499 179.58284 143.96335 180.06383 145.7317 181.3162 150.52455 181.3162 150.52455"/>
</g>
<use data-text="t" xlink:href="#font_2_4" transform="matrix(9.963098,0,0,-9.963496,188.3035,113.55279)"/>
<use data-text="y" xlink:href="#font_2_6" transform="matrix(9.963098,0,0,-9.963496,69.38656,9.581421)"/>
</svg>
