<svg xmlns="http://www.w3.org/2000/svg" xmlns:xlink="http://www.w3.org/1999/xlink" xmlns:inkscape="http://www.inkscape.org/namespaces/inkscape" version="1.1" width="296" height="297" viewBox="0 0 296 297">
<defs>
<path id="font_1_4" d="M.2939911 .64004519C.2939911 .66400149 .2939911 .6660156 .2709961 .6660156 .20899964 .60227969 .12098694 .60227969 .08898926 .60227969V.57128909C.10899353 .57128909 .16799927 .57128909 .21998596 .5972748V.07902527C.21998596 .042999269 .21699524 .0309906 .1269989 .0309906H.09498596V0C.12998963 .0029907227 .21699524 .0029907227 .25698854 .0029907227 .29699708 .0029907227 .38398744 .0029907227 .4189911 0V.0309906H.3869934C.29699708 .0309906 .2939911 .041992189 .2939911 .07902527V.64004519Z"/>
<path id="font_1_5" d="M.1269989 .07699585 .23298645 .18003845C.3889923 .31811524 .44898988 .3721466 .44898988 .47216798 .44898988 .5860901 .35899354 .6660156 .23699951 .6660156 .12399292 .6660156 .049987794 .57411196 .049987794 .48516847 .049987794 .4291687 .099990848 .4291687 .102996829 .4291687 .11999512 .4291687 .15499878 .44117738 .15499878 .48217774 .15499878 .5081787 .13699341 .5341797 .101989749 .5341797 .09399414 .5341797 .09199524 .5341797 .08898926 .5331726 .11199951 .59806826 .1659851 .63500979 .22399903 .63500979 .31498719 .63500979 .35798646 .5541382 .35798646 .47216798 .35798646 .39215089 .30799867 .31311036 .25299073 .25108338L.06098938 .036987306C.049987794 .025985718 .049987794 .023986817 .049987794 0H.42099L.44898988 .17404175H.42399598C.4189911 .14402771 .4119873 .1000061 .4019928 .084991458 .394989 .07699585 .32899476 .07699585 .30699159 .07699585H.1269989Z"/>
<path id="font_1_6" d="M.2899933 .35191346C.37199403 .37893678 .42999269 .4490509 .42999269 .52809146 .42999269 .6100464 .34199525 .6660156 .24598694 .6660156 .14498902 .6660156 .068984989 .60606387 .068984989 .53009036 .068984989 .49710084 .09098816 .47808839 .11999512 .47808839 .15098572 .47808839 .17098999 .50009158 .17098999 .5290985 .17098999 .57910159 .12399292 .57910159 .10899353 .57910159 .13999939 .62802127 .20599365 .64100649 .24198914 .64100649 .2829895 .64100649 .33799745 .6190338 .33799745 .5290985 .33799745 .51708987 .33599855 .45906068 .30999757 .4149933 .27999879 .36691285 .24598694 .36390687 .22099304 .36291505 .21299744 .36190797 .18899536 .35990907 .18199158 .35990907 .17399597 .35890199 .16699219 .35791017 .16699219 .3479004 .16699219 .33691407 .17399597 .33691407 .19099427 .33691407H.23498535C.31698609 .33691407 .35398866 .2686615 .35398866 .17037964 .35398866 .034469606 .2849884 .0055389406 .24099732 .0055389406 .19799805 .0055389406 .12298584 .022491456 .08799744 .08137512 .12298584 .07637024 .1539917 .09837341 .1539917 .1363678 .1539917 .17237854 .1269989 .19238281 .09799194 .19238281 .07398987 .19238281 .041992189 .17837525 .041992189 .1343689 .041992189 .043441774 .1349945-.022460938 .24398804-.022460938 .3659973-.022460938 .45700074 .06838989 .45700074 .17037964 .45700074 .252594 .3939972 .33088685 .2899933 .35191346Z"/>
<path id="font_1_7" d="M.2939911 .16503906V.07800293C.2939911 .041992189 .2919922 .0309906 .21798706 .0309906H.19699097V0C.23799134 .0029907227 .2899933 .0029907227 .33198548 .0029907227 .37399293 .0029907227 .4269867 .0029907227 .46798707 0V.0309906H.44699098C.37298585 .0309906 .37098695 .041992189 .37098695 .07800293V.16503906H.47099305V.19602967H.37098695V.65075686C.37098695 .67074587 .37098695 .6767578 .35499574 .6767578 .34599305 .6767578 .34298707 .6767578 .33499146 .66474917L.027999878 .19602967V.16503906H.2939911M.2999878 .19602967H.055999757L.2999878 .5688019V.19602967Z"/>
<path id="font_1_8" d="M.44898988 .20022583C.44898988 .3193512 .36698915 .41944886 .25898744 .41944886 .21099854 .41944886 .16799927 .40345765 .13198853 .36842347V.5637665C.1519928 .5577698 .18499756 .55078127 .21699524 .55078127 .33999635 .55078127 .4099884 .6417694 .4099884 .6547699 .4099884 .6607666 .40699769 .6657715 .3999939 .6657715 .39898683 .6657715 .39698792 .6657715 .3919983 .66278079 .37199403 .6537781 .32299806 .6337738 .2559967 .6337738 .21598816 .6337738 .16999817 .6407776 .12298584 .6617737 .114990238 .66477969 .11299133 .66477969 .11099243 .66477969 .100997928 .66477969 .100997928 .6567688 .100997928 .6407776V.34439088C.100997928 .32637025 .100997928 .31835938 .114990238 .31835938 .12199402 .31835938 .12399292 .32136537 .12799073 .32736207 .13899231 .3433838 .17599488 .39746095 .25698854 .39746095 .30899049 .39746095 .33399964 .35139466 .34199525 .33337403 .35798646 .29632569 .3600006 .25727845 .3600006 .20722962 .3600006 .17222595 .3600006 .11222839 .33599855 .07035828 .31199647 .031463624 .2749939 .0055389406 .22898865 .0055389406 .1559906 .0055389406 .09899902 .058380128 .08198547 .11723328 .084991458 .1162262 .08799744 .115234378 .09899902 .115234378 .13198853 .115234378 .14898682 .14022827 .14898682 .16423035 .14898682 .18823242 .13198853 .21322632 .09899902 .21322632 .084991458 .21322632 .049987794 .20622254 .049987794 .16023255 .049987794 .07434082 .11898804-.022460938 .23098755-.022460938 .34700013-.022460938 .44898988 .073349 .44898988 .20022583Z"/>
<path id="font_1_9" d="M.13198853 .327713V.35173036C.13198853 .6047821 .2559967 .64100649 .30699159 .64100649 .33099366 .64100649 .37298585 .634964 .394989 .6007538 .37998963 .6007538 .33999635 .6007538 .33999635 .5557556 .33999635 .524765 .3639984 .5097656 .38598634 .5097656 .4019928 .5097656 .43199159 .51875308 .43199159 .5577545 .43199159 .6178589 .3880005 .6660156 .30499269 .6660156 .1769867 .6660156 .041992189 .5367584 .041992189 .31570436 .041992189 .048553468 .1579895-.022460938 .25099183-.022460938 .3619995-.022460938 .45700074 .07156372 .45700074 .2036438 .45700074 .33070375 .36799623 .4267578 .25698854 .4267578 .18899536 .4267578 .1519928 .37573243 .13198853 .327713M.25099183 .0055389406C.18798828 .0055389406 .1579895 .06556702 .1519928 .080566409 .13398743 .127594 .13398743 .2076416 .13398743 .22564698 .13398743 .30369569 .1659851 .40374757 .2559967 .40374757 .27198792 .40374757 .31799317 .40374757 .34899903 .34172059 .36698915 .30470277 .36698915 .2536621 .36698915 .20463562 .36698915 .15661621 .36698915 .10658264 .34999085 .0705719 .31999208 .010528564 .27398683 .0055389406 .25099183 .0055389406Z"/>
<path id="font_1_10" d="M.47599793 .609375C.4850006 .6213684 .4850006 .62338259 .4850006 .64437869H.24198914C.11999512 .64437869 .117996219 .65737918 .11399841 .67637637H.08898926L.055999757 .4702301H.08099365C.083999637 .48625184 .09298706 .5493469 .10598755 .56137087 .11299133 .5673828 .19099427 .5673828 .20399475 .5673828H.41099549C.3999939 .5513611 .32099916 .4421997 .29899598 .40914918 .20899964 .27394105 .17599488 .1347351 .17599488 .032577516 .17599488 .022567749 .17599488-.022460938 .22200012-.022460938 .2679901-.022460938 .2679901 .022567749 .2679901 .032577516V.08366394C.2679901 .13873291 .2709961 .19381714 .2789917 .24790955 .2829895 .27093507 .29699708 .35707093 .34098817 .41915895L.47599793 .609375Z"/>
<path id="font_1_11" d="M.16299439 .4569702C.116989139 .486969 .11299133 .52098086 .11299133 .5379791 .11299133 .598999 .17799378 .64100649 .24899292 .64100649 .32199098 .64100649 .38598634 .58898928 .38598634 .51698306 .38598634 .45996095 .34700013 .4119568 .2869873 .37695313L.16299439 .4569702M.30899049 .36193849C.3809967 .3989563 .42999269 .45095826 .42999269 .51698306 .42999269 .6090088 .34098817 .6660156 .25 .6660156 .1499939 .6660156 .068984989 .59199526 .068984989 .49897767 .068984989 .4809723 .070999149 .43595887 .11299133 .38894654 .12399292 .37695313 .16099549 .35194398 .18598938 .33494569 .12799073 .30592347 .041992189 .24984741 .041992189 .15072632 .041992189 .04458618 .14399719-.022460938 .24899292-.022460938 .3619995-.022460938 .45700074 .06060791 .45700074 .16773987 .45700074 .20379639 .44599916 .24885559 .4079895 .2909088 .3889923 .31193543 .37298585 .3219452 .30899049 .36193849M.20899964 .3199463 .33198548 .24183655C.3600006 .2228241 .40699769 .19277954 .40699769 .13169861 .40699769 .05760193 .33198548 .0055389406 .25 .0055389406 .1639862 .0055389406 .09199524 .067611698 .09199524 .15072632 .09199524 .20880127 .12399292 .27288819 .20899964 .3199463Z"/>
<path id="font_1_12" d="M.36698915 .31781007V.28579713C.36698915 .05178833 .2630005 .0055389406 .20498657 .0055389406 .18798828 .0055389406 .13398743 .007537842 .10699463 .041778566 .15098572 .041778566 .15899658 .07078552 .15899658 .08778381 .15899658 .118774417 .1349945 .13378906 .11299133 .13378906 .09700012 .13378906 .066986087 .12478638 .066986087 .08578491 .066986087 .018615723 .12098694-.022460938 .20599365-.022460938 .33499146-.022460938 .45700074 .11378479 .45700074 .32881166 .45700074 .5979767 .34199525 .6660156 .25299073 .6660156 .19799805 .6660156 .14898682 .64801028 .10598755 .60298159 .06498718 .5579529 .041992189 .5159302 .041992189 .44088746 .041992189 .31581117 .12998963 .21777344 .24198914 .21777344 .30299378 .21777344 .34399415 .25978089 .36698915 .31781007M.24299622 .24076844C.22698975 .24076844 .18099976 .24076844 .1499939 .3038025 .13198853 .3408203 .13198853 .39085389 .13198853 .43988038 .13198853 .49391175 .13198853 .54093936 .15299988 .5779724 .17999268 .6279907 .21798706 .64100649 .25299073 .64100649 .29899598 .64100649 .33198548 .60697939 .34899903 .5619507 .36099244 .52993777 .36499024 .4669037 .36499024 .42086793 .36499024 .3378296 .33099366 .24076844 .24299622 .24076844Z"/>
<path id="font_1_3" d="M.45999146 .31976319C.45999146 .39982606 .45498658 .47988893 .41999818 .5539398 .37399293 .65000918 .2919922 .6660156 .25 .6660156 .18998719 .6660156 .116989139 .64001467 .07598877 .54693606 .04399109 .47789 .038986207 .39982606 .038986207 .31976319 .038986207 .24472046 .042999269 .15464783 .083999637 .07859802 .1269989-.0024719239 .19999695-.022460938 .24899292-.022460938 .30299378-.022460938 .3789978-.0014648438 .4229889 .09359741 .45498658 .16265869 .45999146 .2407074 .45999146 .31976319M.24899292-.00047302247C.20999146-.00047302247 .15098572 .024551392 .1329956 .12062073 .12199402 .18066406 .12199402 .2727356 .12199402 .3317871 .12199402 .39582826 .12199402 .46188355 .12998963 .5159149 .14898682 .63500979 .22399903 .64401248 .24899292 .64401248 .28199769 .64401248 .34799195 .6259918 .36698915 .52693179 .3769989 .47088624 .3769989 .39482118 .3769989 .3317871 .3769989 .25672914 .3769989 .18867493 .3659973 .12461853 .35099793 .029556275 .2939911-.00047302247 .24899292-.00047302247Z"/>
<clipPath id="clip_2">
<path transform="matrix(1,0,0,-1.00005,1.0960007,335.78898)" d="M0 40.07735H293.89375V333.97795H0Z"/>
</clipPath>
<path id="font_3_2" d="M.20599365 .3996582H.2999878C.31999208 .3996582 .32998658 .3996582 .32998658 .41966249 .32998658 .43066407 .31999208 .43066407 .3019867 .43066407H.21398926C.25 .5724945 .25498963 .59246829 .25498963 .59846499 .25498963 .61546328 .24299622 .62545779 .22599793 .62545779 .22299195 .62545779 .19499207 .62446597 .18598938 .58947756L.14698792 .43066407H.052993776C.032989503 .43066407 .022994996 .43066407 .022994996 .4116516 .022994996 .3996582 .0309906 .3996582 .050994874 .3996582H.13899231C.066986087 .11608887 .06298828 .099121097 .06298828 .08114624 .06298828 .02722168 .100997928-.0107421879 .15499878-.0107421879 .25698854-.0107421879 .31399537 .13505554 .31399537 .14305115 .31399537 .1530304 .30599977 .1530304 .3019867 .1530304 .29299928 .1530304 .2919922 .15003968 .2869873 .13905335 .24398804 .035217287 .19099427 .011245728 .15699768 .011245728 .13598633 .011245728 .12599182 .024230957 .12599182 .057174684 .12599182 .08114624 .12799073 .088134769 .13198853 .10510254L.20599365 .3996582Z"/>
<path id="font_3_1" d="M.36698915 .3996582H.45298768C.47299195 .3996582 .48298646 .3996582 .48298646 .41966249 .48298646 .43066407 .47299195 .43066407 .45599366 .43066407H.37298585L.3939972 .5449524C.397995 .5660095 .4119873 .6370239 .41799928 .6490326 .4269867 .66804507 .44400025 .68307498 .46499635 .68307498 .46899415 .68307498 .49499513 .68307498 .5139923 .66503909 .46998597 .661026 .45999146 .6260376 .45999146 .6110382 .45999146 .58802798 .47799684 .57603457 .49699403 .57603457 .522995 .57603457 .5519867 .5980377 .5519867 .6360321 .5519867 .6820679 .5059967 .7050781 .46499635 .7050781 .43099977 .7050781 .36799623 .68707278 .33799745 .58802798 .33198548 .56700137 .32899476 .5569763 .30499269 .43066407H.23599243C.21699524 .43066407 .20599365 .43066407 .20599365 .4116516 .20599365 .3996582 .21499634 .3996582 .23399353 .3996582H.2999878L.22499085 .0048828127C.20698548-.09207153 .18998719-.18309021 .13798523-.18309021 .13398743-.18309021 .10899353-.18309021 .08999634-.16506958 .13598633-.1620636 .14498902-.12606812 .14498902-.111068729 .14498902-.08807373 .1269989-.07606506 .10798645-.07606506 .08198547-.07606506 .052993776-.09806824 .052993776-.13606262 .052993776-.18109131 .09700012-.20507813 .13798523-.20507813 .19299317-.20507813 .23298645-.14607239 .25099183-.108062747 .2829895-.04508972 .30599977 .07583618 .30699159 .082839969L.36698915 .3996582Z"/>
<path id="font_1_1" d="M.33099366-.2400055C.33099366-.23701477 .33099366-.23500061 .31399537-.21800232 .18899536-.0920105 .15699768 .09700012 .15699768 .25 .15699768 .42399598 .19499207 .59799197 .31799317 .72299197 .33099366 .73498538 .33099366 .7369995 .33099366 .73999026 .33099366 .746994 .32699586 .75 .32099916 .75 .31098939 .75 .22099304 .6819916 .1619873 .5549927 .11099243 .44499208 .09899902 .33399964 .09899902 .25 .09899902 .17199707 .10998535 .050994874 .16499329-.06201172 .22499085-.18501282 .31098939-.25 .32099916-.25 .32699586-.25 .33099366-.24700928 .33099366-.2400055Z"/>
<path id="font_1_2" d="M.2889862 .25C.2889862 .32798768 .27799989 .44898988 .22299195 .56199648 .16299439 .68499758 .07699585 .75 .066986087 .75 .06098938 .75 .056991579 .74598696 .056991579 .73999026 .056991579 .7369995 .056991579 .73498538 .07598877 .71699526 .17399597 .6179962 .23098755 .45899964 .23098755 .25 .23098755 .07899475 .19400025-.09700012 .069992069-.2230072 .056991579-.23500061 .056991579-.23701477 .056991579-.2400055 .056991579-.2460022 .06098938-.25 .066986087-.25 .07699585-.25 .16699219-.18200684 .22599793-.055007936 .2769928 .054992677 .2889862 .16600037 .2889862 .25Z"/>
</defs>
<path transform="matrix(1,0,0,-1.00005,1.0960007,335.78898)" stroke-width=".19925" stroke-linecap="butt" stroke-miterlimit="10" stroke-linejoin="miter" fill="none" stroke="#7f807f" d="M73.47343 51.31058V55.56235M122.45573 51.31058V55.56235M171.43802 51.31058V55.56235M220.42032 51.31058V55.56235M269.40263 51.31058V55.56235"/>
<path transform="matrix(1,0,0,-1.00005,1.0960007,335.78898)" stroke-width=".19925" stroke-linecap="butt" stroke-miterlimit="10" stroke-linejoin="miter" fill="none" stroke="#7f807f" d="M22.36526 80.15471H26.617M22.36526 106.87294H26.617M22.36526 133.59117H26.617M22.36526 160.30942H26.617M22.36526 187.02765H26.617M22.36526 213.7459H26.617M22.36526 240.46413H26.617M22.36526 267.18238H26.617M22.36526 293.9006H26.617M22.36526 320.61885H26.617"/>
<path transform="matrix(1,0,0,-1.00005,1.0960007,335.78898)" stroke-width=".3985" stroke-linecap="butt" stroke-miterlimit="10" stroke-linejoin="miter" fill="none" stroke="#000000" d="M0 53.43646H291.90126"/>
<path transform="matrix(1,0,0,-1.00005,292.99726,282.34986)" d="M1.99252 0-1.19551 1.59401 0 0-1.19551-1.59401"/>
<path transform="matrix(1,0,0,-1.00005,1.0960007,335.78898)" stroke-width=".3985" stroke-linecap="butt" stroke-miterlimit="10" stroke-linejoin="miter" fill="none" stroke="#000000" d="M24.49113 40.07735V331.98545"/>
<path transform="matrix(0,-1.00005,-1,-0,25.587132,3.7869569)" d="M1.99252 0-1.19551 1.59401 0 0-1.19551-1.59401"/>
<use data-text="1" xlink:href="#font_1_4" transform="matrix(9.9626,0,0,-9.963098,72.079,294.4169)"/>
<use data-text="2" xlink:href="#font_1_5" transform="matrix(9.9626,0,0,-9.963098,121.061,294.4169)"/>
<use data-text="3" xlink:href="#font_1_6" transform="matrix(9.9626,0,0,-9.963098,170.043,294.4169)"/>
<use data-text="4" xlink:href="#font_1_7" transform="matrix(9.9626,0,0,-9.963098,219.02599,294.4169)"/>
<use data-text="5" xlink:href="#font_1_8" transform="matrix(9.9626,0,0,-9.963098,268.008,294.4169)"/>
<use data-text="1" xlink:href="#font_1_4" transform="matrix(9.9626,0,0,-9.963098,14.959999,258.84114)"/>
<use data-text="2" xlink:href="#font_1_5" transform="matrix(9.9626,0,0,-9.963098,14.959999,232.12079)"/>
<use data-text="3" xlink:href="#font_1_6" transform="matrix(9.9626,0,0,-9.963098,14.959999,205.40146)"/>
<use data-text="4" xlink:href="#font_1_7" transform="matrix(9.9626,0,0,-9.963098,14.959999,178.68213)"/>
<use data-text="5" xlink:href="#font_1_8" transform="matrix(9.9626,0,0,-9.963098,14.959999,151.96279)"/>
<use data-text="6" xlink:href="#font_1_9" transform="matrix(9.9626,0,0,-9.963098,14.959999,125.24246)"/>
<use data-text="7" xlink:href="#font_1_10" transform="matrix(9.9626,0,0,-9.963098,14.959999,98.52312)"/>
<use data-text="8" xlink:href="#font_1_11" transform="matrix(9.9626,0,0,-9.963098,14.959999,71.8038)"/>
<use data-text="9" xlink:href="#font_1_12" transform="matrix(9.9626,0,0,-9.963098,14.959999,45.084444)"/>
<use data-text="1" xlink:href="#font_1_4" transform="matrix(9.9626,0,0,-9.963098,9.979004,18.364106)"/>
<use data-text="0" xlink:href="#font_1_3" transform="matrix(9.9626,0,0,-9.963098,14.960304,18.364106)"/>
<g clip-path="url(#clip_2)">
<path transform="matrix(1,0,0,-1.00005,1.0960007,335.78898)" stroke-width="1.59404" stroke-linecap="butt" stroke-miterlimit="10" stroke-linejoin="miter" fill="none" stroke="#0000ff" d="M0 0C0 0 2.14479 2.33983 2.96855 3.2385 3.79233 4.13716 5.11336 5.57832 5.93712 6.477 6.7609 7.37569 8.08194 8.81688 8.9057 9.71556 9.72948 10.61424 11.0505 12.0554 11.87427 12.95407 12.69804 13.85274 14.01909 15.29391 14.84285 16.19258 15.66663 17.09125 16.98764 18.53242 17.8114 19.43109 18.63518 20.32976 19.95622 21.77094 20.77998 22.66959 21.60374 23.56825 22.92479 25.00941 23.74855 25.9081 24.57231 26.80678 25.89337 28.24797 26.71713 29.14665 27.5409 30.04533 28.86194 31.4865 29.6857 32.38516 30.50946 33.28383 31.8305 34.725 32.65427 35.62367 33.47803 36.52234 34.79909 37.96353 35.62285 38.8622 36.44661 39.76086 37.76765 41.20204 38.59142 42.10071 39.41518 42.99936 40.73624 44.44055 41.56 45.33923 42.38376 46.23792 43.7048 47.6791 44.52856 48.57776 45.35233 49.47643 46.67339 50.9176 47.49715 51.81627 48.3209 52.71494 49.64194 54.15611 50.4657 55.05478 51.28946 55.95345 52.61052 57.39462 53.43428 58.29329 54.25804 59.19196 55.57909 60.63312 56.40285 61.5318 57.22661 62.43048 58.54765 63.87167 59.37143 64.77034 60.19519 65.66902 61.51622 67.11018 62.34 68.00885 63.16376 68.90752 64.48479 70.3487 65.30856 71.24736 66.13232 72.14603 67.45337 73.5872 68.27715 74.48587 69.1009 75.38454 70.42194 76.82573 71.24571 77.7244 72.06947 78.62306 73.39052 80.06424 74.2143 80.9629 75.03806 81.86157 76.3591 83.30275 77.18286 84.20142 78.0066 85.10007 79.32765 86.54126 80.1514 87.43991 80.97516 88.33858 82.2962 89.77975 83.11996 90.67842 83.94374 91.57709 85.26477 93.01826 86.08853 93.91693 86.91231 94.8156 88.23334 96.25677 89.0571 97.15544 89.88087 98.05411 91.2019 99.49529 92.02567 100.39395 92.84944 101.29262 94.17047 102.73381 94.99423 103.63248 95.81801 104.53114 97.13904 105.97232 97.9628 106.87099 98.78656 107.76964 100.1076 109.21082 100.93137 110.10948 101.75513 111.00815 103.07617 112.44933 103.89993 113.34799 104.7237 114.24666 106.04474 115.68784 106.8685 116.5865 107.69226 117.48517 109.0133 118.92635 109.83707 119.82501 110.66083 120.72368 111.98189 122.16486 112.80563 123.06352 113.62938 123.96219 114.95044 125.40338 115.77419 126.30205 116.59793 127.20071 117.91899 128.64189 118.74275 129.54055 119.56651 130.43921 120.88756 131.88039 121.71132 132.77906 122.53508 133.67772 123.85612 135.1189 124.67989 136.01757 125.50365 136.91623 126.82469 138.3574 127.64845 139.25608 128.47222 140.15474 129.79326 141.59592 130.61702 142.49459 131.44078 143.39325 132.76183 144.83443 133.58559 145.7331 134.40935 146.63176 135.7304 148.07295 136.55416 148.97162 137.37792 149.87027 138.69895 151.31147 139.52272 152.21012 140.34648 153.10878 141.66751 154.54996 142.49129 155.44863 143.31505 156.34729 144.63608 157.78847 145.45986 158.68714 146.28362 159.5858 147.60466 161.02698 148.42842 161.92565 149.25217 162.82431 150.57321 164.26549 151.39698 165.16416 152.22072 166.06282 153.54177 167.504 154.36554 168.40267 155.1893 169.30133 156.51033 170.74253 157.3341 171.64119 158.15787 172.53984 159.4789 173.98102 160.30266 174.87969 161.12644 175.77835 162.44747 177.21953 163.27123 178.1182 164.095 179.01686 165.41603 180.45804 166.23979 181.3567 167.06357 182.25537 168.3846 183.69655 169.20836 184.59522 170.03214 185.49388 171.35317 186.93506 172.17693 187.83373 173.0007 188.73239 174.32173 190.17357 175.1455 191.07224 175.96927 191.9709 177.2903 193.41208 178.11406 194.31073 178.93784 195.2094 180.25888 196.65059 181.08263 197.54926 181.90637 198.44792 183.22743 199.8891 184.05118 200.78777 184.87493 201.68643 186.19599 203.12761 187.01975 204.02628 187.8435 204.92494 189.16455 206.36612 189.98831 207.26479 190.81208 208.16345 192.13312 209.60463 192.95688 210.5033 193.78064 211.40196 195.10169 212.84314 195.92545 213.7418 196.7492 214.64048 198.07025 216.08165 198.89402 216.9803 199.71778 217.87897 201.03882 219.32016 201.86258 220.21883 202.68634 221.1175 204.00739 222.55867 204.83115 223.45734 205.6549 224.356 206.97595 225.79718 207.79972 226.69585 208.62348 227.59452 209.94452 229.03569 210.76828 229.93436 211.59204 230.83303 212.91309 232.2742 213.73685 233.17287 214.56061 234.07154 215.88167 235.51271 216.70542 236.41138 217.52916 237.31003 218.8502 238.7512 219.67397 239.64987 220.49771 240.54854 221.81876 241.98973 222.64253 242.8884 223.4663 243.78707 224.78733 245.22824 225.6111 246.1269 226.43486 247.02558 227.75589 248.46675 228.57967 249.36542 229.40343 250.26409 230.72446 251.70526 231.54824 252.60393 232.372 253.5026 233.69303 254.94377 234.5168 255.84244 235.34056 256.7411 236.66159 258.18229 237.48537 259.08097 238.30913 259.9796 239.63016 261.42079 240.45392 262.31944 241.2777 263.2181 242.59873 264.6593 243.42249 265.55799 244.24626 266.45664 245.56729 267.8978 246.39105 268.79649 247.21483 269.69514 248.53586 271.13633 249.35962 272.035 250.1834 272.93367 251.50444 274.37483 252.32819 275.2735 253.15195 276.17216 254.47299 277.61335 255.29674 278.51203 256.1205 279.41069 257.44154 280.85185 258.2653 281.7505 259.08909 282.64918 260.4101 284.09037 261.23387 284.989 262.05763 285.88768 263.3787 287.32887 264.20246 288.2275 265.0262 289.1262 266.34724 290.56739 267.171 291.46607 267.99479 292.36473 269.3158 293.8059 270.13957 294.70457 270.96333 295.60325 272.2844 297.0444 273.10816 297.94309 273.9319 298.84175 275.25294 300.2829 276.0767 301.18159 276.90049 302.08024 278.2215 303.52143 279.04527 304.42008 279.86903 305.31874 281.1901 306.75993 282.01387 307.65858 282.8376 308.55726 284.15867 309.99845 284.9824 310.8971 285.80616 311.79576 287.1272 313.23695 287.95097 314.13563 288.7747 315.0343 290.09577 316.47547 290.91954 317.3741 291.7433 318.2728 293.8881 320.61265 293.8881 320.61265"/>
</g>
<use data-text="t" xlink:href="#font_3_2" transform="matrix(9.9626,0,0,-9.963098,287.91798,278.82115)"/>
<use data-text="f" xlink:href="#font_3_1" transform="matrix(9.9626,0,0,-9.963098,29.112,12.718842)"/>
<use data-text="(" xlink:href="#font_1_1" transform="matrix(9.9626,0,0,-9.963098,35.061998,12.718842)"/>
<use data-text="t" xlink:href="#font_3_2" transform="matrix(9.9626,0,0,-9.963098,38.935998,12.718842)"/>
<use data-text=")" xlink:href="#font_1_2" transform="matrix(9.9626,0,0,-9.963098,42.533998,12.718842)"/>
</svg>
