<svg xmlns="http://www.w3.org/2000/svg" xmlns:xlink="http://www.w3.org/1999/xlink" xmlns:inkscape="http://www.inkscape.org/namespaces/inkscape" version="1.1" width="296" height="297" viewBox="0 0 296 297">
<defs>
<path id="font_1_4" d="M.2939911 .64004519C.2939911 .66400149 .2939911 .6660156 .2709961 .6660156 .20899964 .60227969 .12098694 .60227969 .08898926 .60227969V.57128909C.10899353 .57128909 .16799927 .57128909 .21998596 .5972748V.07902527C.21998596 .042999269 .21699524 .0309906 .1269989 .0309906H.09498596V0C.12998963 .0029907227 .21699524 .0029907227 .25698854 .0029907227 .29699708 .0029907227 .38398744 .0029907227 .4189911 0V.0309906H.3869934C.29699708 .0309906 .2939911 .041992189 .2939911 .07902527V.64004519Z"/>
<path id="font_1_5" d="M.1269989 .07699585 .23298645 .18003845C.3889923 .31811524 .44898988 .3721466 .44898988 .47216798 .44898988 .5860901 .35899354 .6660156 .23699951 .6660156 .12399292 .6660156 .049987794 .57411196 .049987794 .48516847 .049987794 .4291687 .099990848 .4291687 .102996829 .4291687 .11999512 .4291687 .15499878 .44117738 .15499878 .48217774 .15499878 .5081787 .13699341 .5341797 .101989749 .5341797 .09399414 .5341797 .09199524 .5341797 .08898926 .5331726 .11199951 .59806826 .1659851 .63500979 .22399903 .63500979 .31498719 .63500979 .35798646 .5541382 .35798646 .47216798 .35798646 .39215089 .30799867 .31311036 .25299073 .25108338L.06098938 .036987306C.049987794 .025985718 .049987794 .023986817 .049987794 0H.42099L.44898988 .17404175H.42399598C.4189911 .14402771 .4119873 .1000061 .4019928 .084991458 .394989 .07699585 .32899476 .07699585 .30699159 .07699585H.1269989Z"/>
<path id="font_1_6" d="M.2899933 .35191346C.37199403 .37893678 .42999269 .4490509 .42999269 .52809146 .42999269 .6100464 .34199525 .6660156 .24598694 .6660156 .14498902 .6660156 .068984989 .60606387 .068984989 .53009036 .068984989 .49710084 .09098816 .47808839 .11999512 .47808839 .15098572 .47808839 .17098999 .50009158 .17098999 .5290985 .17098999 .57910159 .12399292 .57910159 .10899353 .57910159 .13999939 .62802127 .20599365 .64100649 .24198914 .64100649 .2829895 .64100649 .33799745 .6190338 .33799745 .5290985 .33799745 .51708987 .33599855 .45906068 .30999757 .4149933 .27999879 .36691285 .24598694 .36390687 .22099304 .36291505 .21299744 .36190797 .18899536 .35990907 .18199158 .35990907 .17399597 .35890199 .16699219 .35791017 .16699219 .3479004 .16699219 .33691407 .17399597 .33691407 .19099427 .33691407H.23498535C.31698609 .33691407 .35398866 .2686615 .35398866 .17037964 .35398866 .034469606 .2849884 .0055389406 .24099732 .0055389406 .19799805 .0055389406 .12298584 .022491456 .08799744 .08137512 .12298584 .07637024 .1539917 .09837341 .1539917 .1363678 .1539917 .17237854 .1269989 .19238281 .09799194 .19238281 .07398987 .19238281 .041992189 .17837525 .041992189 .1343689 .041992189 .043441774 .1349945-.022460938 .24398804-.022460938 .3659973-.022460938 .45700074 .06838989 .45700074 .17037964 .45700074 .252594 .3939972 .33088685 .2899933 .35191346Z"/>
<path id="font_1_7" d="M.2939911 .16503906V.07800293C.2939911 .041992189 .2919922 .0309906 .21798706 .0309906H.19699097V0C.23799134 .0029907227 .2899933 .0029907227 .33198548 .0029907227 .37399293 .0029907227 .4269867 .0029907227 .46798707 0V.0309906H.44699098C.37298585 .0309906 .37098695 .041992189 .37098695 .07800293V.16503906H.47099305V.19602967H.37098695V.65075686C.37098695 .67074587 .37098695 .6767578 .35499574 .6767578 .34599305 .6767578 .34298707 .6767578 .33499146 .66474917L.027999878 .19602967V.16503906H.2939911M.2999878 .19602967H.055999757L.2999878 .5688019V.19602967Z"/>
<path id="font_1_8" d="M.44898988 .20022583C.44898988 .3193512 .36698915 .41944886 .25898744 .41944886 .21099854 .41944886 .16799927 .40345765 .13198853 .36842347V.5637665C.1519928 .5577698 .18499756 .55078127 .21699524 .55078127 .33999635 .55078127 .4099884 .6417694 .4099884 .6547699 .4099884 .6607666 .40699769 .6657715 .3999939 .6657715 .39898683 .6657715 .39698792 .6657715 .3919983 .66278079 .37199403 .6537781 .32299806 .6337738 .2559967 .6337738 .21598816 .6337738 .16999817 .6407776 .12298584 .6617737 .114990238 .66477969 .11299133 .66477969 .11099243 .66477969 .100997928 .66477969 .100997928 .6567688 .100997928 .6407776V.34439088C.100997928 .32637025 .100997928 .31835938 .114990238 .31835938 .12199402 .31835938 .12399292 .32136537 .12799073 .32736207 .13899231 .3433838 .17599488 .39746095 .25698854 .39746095 .30899049 .39746095 .33399964 .35139466 .34199525 .33337403 .35798646 .29632569 .3600006 .25727845 .3600006 .20722962 .3600006 .17222595 .3600006 .11222839 .33599855 .07035828 .31199647 .031463624 .2749939 .0055389406 .22898865 .0055389406 .1559906 .0055389406 .09899902 .058380128 .08198547 .11723328 .084991458 .1162262 .08799744 .115234378 .09899902 .115234378 .13198853 .115234378 .14898682 .14022827 .14898682 .16423035 .14898682 .18823242 .13198853 .21322632 .09899902 .21322632 .084991458 .21322632 .049987794 .20622254 .049987794 .16023255 .049987794 .07434082 .11898804-.022460938 .23098755-.022460938 .34700013-.022460938 .44898988 .073349 .44898988 .20022583Z"/>
<path id="font_1_9" d="M.13198853 .327713V.35173036C.13198853 .6047821 .2559967 .64100649 .30699159 .64100649 .33099366 .64100649 .37298585 .634964 .394989 .6007538 .37998963 .6007538 .33999635 .6007538 .33999635 .5557556 .33999635 .524765 .3639984 .5097656 .38598634 .5097656 .4019928 .5097656 .43199159 .51875308 .43199159 .5577545 .43199159 .6178589 .3880005 .6660156 .30499269 .6660156 .1769867 .6660156 .041992189 .5367584 .041992189 .31570436 .041992189 .048553468 .1579895-.022460938 .25099183-.022460938 .3619995-.022460938 .45700074 .07156372 .45700074 .2036438 .45700074 .33070375 .36799623 .4267578 .25698854 .4267578 .18899536 .4267578 .1519928 .37573243 .13198853 .327713M.25099183 .0055389406C.18798828 .0055389406 .1579895 .06556702 .1519928 .080566409 .13398743 .127594 .13398743 .2076416 .13398743 .22564698 .13398743 .30369569 .1659851 .40374757 .2559967 .40374757 .27198792 .40374757 .31799317 .40374757 .34899903 .34172059 .36698915 .30470277 .36698915 .2536621 .36698915 .20463562 .36698915 .15661621 .36698915 .10658264 .34999085 .0705719 .31999208 .010528564 .27398683 .0055389406 .25099183 .0055389406Z"/>
<path id="font_1_10" d="M.47599793 .609375C.4850006 .6213684 .4850006 .62338259 .4850006 .64437869H.24198914C.11999512 .64437869 .117996219 .65737918 .11399841 .67637637H.08898926L.055999757 .4702301H.08099365C.083999637 .48625184 .09298706 .5493469 .10598755 .56137087 .11299133 .5673828 .19099427 .5673828 .20399475 .5673828H.41099549C.3999939 .5513611 .32099916 .4421997 .29899598 .40914918 .20899964 .27394105 .17599488 .1347351 .17599488 .032577516 .17599488 .022567749 .17599488-.022460938 .22200012-.022460938 .2679901-.022460938 .2679901 .022567749 .2679901 .032577516V.08366394C.2679901 .13873291 .2709961 .19381714 .2789917 .24790955 .2829895 .27093507 .29699708 .35707093 .34098817 .41915895L.47599793 .609375Z"/>
<path id="font_1_11" d="M.16299439 .4569702C.116989139 .486969 .11299133 .52098086 .11299133 .5379791 .11299133 .598999 .17799378 .64100649 .24899292 .64100649 .32199098 .64100649 .38598634 .58898928 .38598634 .51698306 .38598634 .45996095 .34700013 .4119568 .2869873 .37695313L.16299439 .4569702M.30899049 .36193849C.3809967 .3989563 .42999269 .45095826 .42999269 .51698306 .42999269 .6090088 .34098817 .6660156 .25 .6660156 .1499939 .6660156 .068984989 .59199526 .068984989 .49897767 .068984989 .4809723 .070999149 .43595887 .11299133 .38894654 .12399292 .37695313 .16099549 .35194398 .18598938 .33494569 .12799073 .30592347 .041992189 .24984741 .041992189 .15072632 .041992189 .04458618 .14399719-.022460938 .24899292-.022460938 .3619995-.022460938 .45700074 .06060791 .45700074 .16773987 .45700074 .20379639 .44599916 .24885559 .4079895 .2909088 .3889923 .31193543 .37298585 .3219452 .30899049 .36193849M.20899964 .3199463 .33198548 .24183655C.3600006 .2228241 .40699769 .19277954 .40699769 .13169861 .40699769 .05760193 .33198548 .0055389406 .25 .0055389406 .1639862 .0055389406 .09199524 .067611698 .09199524 .15072632 .09199524 .20880127 .12399292 .27288819 .20899964 .3199463Z"/>
<path id="font_1_12" d="M.36698915 .31781007V.28579713C.36698915 .05178833 .2630005 .0055389406 .20498657 .0055389406 .18798828 .0055389406 .13398743 .007537842 .10699463 .041778566 .15098572 .041778566 .15899658 .07078552 .15899658 .08778381 .15899658 .118774417 .1349945 .13378906 .11299133 .13378906 .09700012 .13378906 .066986087 .12478638 .066986087 .08578491 .066986087 .018615723 .12098694-.022460938 .20599365-.022460938 .33499146-.022460938 .45700074 .11378479 .45700074 .32881166 .45700074 .5979767 .34199525 .6660156 .25299073 .6660156 .19799805 .6660156 .14898682 .64801028 .10598755 .60298159 .06498718 .5579529 .041992189 .5159302 .041992189 .44088746 .041992189 .31581117 .12998963 .21777344 .24198914 .21777344 .30299378 .21777344 .34399415 .25978089 .36698915 .31781007M.24299622 .24076844C.22698975 .24076844 .18099976 .24076844 .1499939 .3038025 .13198853 .3408203 .13198853 .39085389 .13198853 .43988038 .13198853 .49391175 .13198853 .54093936 .15299988 .5779724 .17999268 .6279907 .21798706 .64100649 .25299073 .64100649 .29899598 .64100649 .33198548 .60697939 .34899903 .5619507 .36099244 .52993777 .36499024 .4669037 .36499024 .42086793 .36499024 .3378296 .33099366 .24076844 .24299622 .24076844Z"/>
<path id="font_1_3" d="M.45999146 .31976319C.45999146 .39982606 .45498658 .47988893 .41999818 .5539398 .37399293 .65000918 .2919922 .6660156 .25 .6660156 .18998719 .6660156 .116989139 .64001467 .07598877 .54693606 .04399109 .47789 .038986207 .39982606 .038986207 .31976319 .038986207 .24472046 .042999269 .15464783 .083999637 .07859802 .1269989-.0024719239 .19999695-.022460938 .24899292-.022460938 .30299378-.022460938 .3789978-.0014648438 .4229889 .09359741 .45498658 .16265869 .45999146 .2407074 .45999146 .31976319M.24899292-.00047302247C.20999146-.00047302247 .15098572 .024551392 .1329956 .12062073 .12199402 .18066406 .12199402 .2727356 .12199402 .3317871 .12199402 .39582826 .12199402 .46188355 .12998963 .5159149 .14898682 .63500979 .22399903 .64401248 .24899292 .64401248 .28199769 .64401248 .34799195 .6259918 .36698915 .52693179 .3769989 .47088624 .3769989 .39482118 .3769989 .3317871 .3769989 .25672914 .3769989 .18867493 .3659973 .12461853 .35099793 .029556275 .2939911-.00047302247 .24899292-.00047302247Z"/>
<clipPath id="clip_2">
<path transform="matrix(1,0,0,-1.00005,1.0960007,335.78898)" d="M0 40.07735H293.89375V333.97795H0Z"/>
</clipPath>
<path id="font_3_2" d="M.20599365 .3996582H.2999878C.31999208 .3996582 .32998658 .3996582 .32998658 .41966249 .32998658 .43066407 .31999208 .43066407 .3019867 .43066407H.21398926C.25 .5724945 .25498963 .59246829 .25498963 .59846499 .25498963 .61546328 .24299622 .62545779 .22599793 .62545779 .22299195 .62545779 .19499207 .62446597 .18598938 .58947756L.14698792 .43066407H.052993776C.032989503 .43066407 .022994996 .43066407 .022994996 .4116516 .022994996 .3996582 .0309906 .3996582 .050994874 .3996582H.13899231C.066986087 .11608887 .06298828 .099121097 .06298828 .08114624 .06298828 .02722168 .100997928-.0107421879 .15499878-.0107421879 .25698854-.0107421879 .31399537 .13505554 .31399537 .14305115 .31399537 .1530304 .30599977 .1530304 .3019867 .1530304 .29299928 .1530304 .2919922 .15003968 .2869873 .13905335 .24398804 .035217287 .19099427 .011245728 .15699768 .011245728 .13598633 .011245728 .12599182 .024230957 .12599182 .057174684 .12599182 .08114624 .12799073 .088134769 .13198853 .10510254L.20599365 .3996582Z"/>
<path id="font_3_1" d="M.36698915 .3996582H.45298768C.47299195 .3996582 .48298646 .3996582 .48298646 .41966249 .48298646 .43066407 .47299195 .43066407 .45599366 .43066407H.37298585L.3939972 .5449524C.397995 .5660095 .4119873 .6370239 .41799928 .6490326 .4269867 .66804507 .44400025 .68307498 .46499635 .68307498 .46899415 .68307498 .49499513 .68307498 .5139923 .66503909 .46998597 .661026 .45999146 .6260376 .45999146 .6110382 .45999146 .58802798 .47799684 .57603457 .49699403 .57603457 .522995 .57603457 .5519867 .5980377 .5519867 .6360321 .5519867 .6820679 .5059967 .7050781 .46499635 .7050781 .43099977 .7050781 .36799623 .68707278 .33799745 .58802798 .33198548 .56700137 .32899476 .5569763 .30499269 .43066407H.23599243C.21699524 .43066407 .20599365 .43066407 .20599365 .4116516 .20599365 .3996582 .21499634 .3996582 .23399353 .3996582H.2999878L.22499085 .0048828127C.20698548-.09207153 .18998719-.18309021 .13798523-.18309021 .13398743-.18309021 .10899353-.18309021 .08999634-.16506958 .13598633-.1620636 .14498902-.12606812 .14498902-.111068729 .14498902-.08807373 .1269989-.07606506 .10798645-.07606506 .08198547-.07606506 .052993776-.09806824 .052993776-.13606262 .052993776-.18109131 .09700012-.20507813 .13798523-.20507813 .19299317-.20507813 .23298645-.14607239 .25099183-.108062747 .2829895-.04508972 .30599977 .07583618 .30699159 .082839969L.36698915 .3996582Z"/>
<path id="font_1_1" d="M.33099366-.2400055C.33099366-.23701477 .33099366-.23500061 .31399537-.21800232 .18899536-.0920105 .15699768 .09700012 .15699768 .25 .15699768 .42399598 .19499207 .59799197 .31799317 .72299197 .33099366 .73498538 .33099366 .7369995 .33099366 .73999026 .33099366 .746994 .32699586 .75 .32099916 .75 .31098939 .75 .22099304 .6819916 .1619873 .5549927 .11099243 .44499208 .09899902 .33399964 .09899902 .25 .09899902 .17199707 .10998535 .050994874 .16499329-.06201172 .22499085-.18501282 .31098939-.25 .32099916-.25 .32699586-.25 .33099366-.24700928 .33099366-.2400055Z"/>
<path id="font_1_2" d="M.2889862 .25C.2889862 .32798768 .27799989 .44898988 .22299195 .56199648 .16299439 .68499758 .07699585 .75 .066986087 .75 .06098938 .75 .056991579 .74598696 .056991579 .73999026 .056991579 .7369995 .056991579 .73498538 .07598877 .71699526 .17399597 .6179962 .23098755 .45899964 .23098755 .25 .23098755 .07899475 .19400025-.09700012 .069992069-.2230072 .056991579-.23500061 .056991579-.23701477 .056991579-.2400055 .056991579-.2460022 .06098938-.25 .066986087-.25 .07699585-.25 .16699219-.18200684 .22599793-.055007936 .2769928 .054992677 .2889862 .16600037 .2889862 .25Z"/>
</defs>
<path transform="matrix(1,0,0,-1.00005,1.0960007,335.78898)" stroke-width=".19925" stroke-linecap="butt" stroke-miterlimit="10" stroke-linejoin="miter" fill="none" stroke="#7f807f" d="M73.47343 51.31058V55.56235M122.45573 51.31058V55.56235M171.43802 51.31058V55.56235M220.42032 51.31058V55.56235M269.40263 51.31058V55.56235"/>
<path transform="matrix(1,0,0,-1.00005,1.0960007,335.78898)" stroke-width=".19925" stroke-linecap="butt" stroke-miterlimit="10" stroke-linejoin="miter" fill="none" stroke="#7f807f" d="M22.36526 80.15471H26.617M22.36526 106.87294H26.617M22.36526 133.59117H26.617M22.36526 160.30942H26.617M22.36526 187.02765H26.617M22.36526 213.7459H26.617M22.36526 240.46413H26.617M22.36526 267.18238H26.617M22.36526 293.9006H26.617M22.36526 320.61885H26.617"/>
<path transform="matrix(1,0,0,-1.00005,1.0960007,335.78898)" stroke-width=".3985" stroke-linecap="butt" stroke-miterlimit="10" stroke-linejoin="miter" fill="none" stroke="#000000" d="M0 53.43646H291.90126"/>
<path transform="matrix(1,0,0,-1.00005,292.99726,282.34986)" d="M1.99252 0-1.19551 1.59401 0 0-1.19551-1.59401"/>
<path transform="matrix(1,0,0,-1.00005,1.0960007,335.78898)" stroke-width=".3985" stroke-linecap="butt" stroke-miterlimit="10" stroke-linejoin="miter" fill="none" stroke="#000000" d="M24.49113 40.07735V331.98545"/>
<path transform="matrix(0,-1.00005,-1,-0,25.587132,3.7869569)" d="M1.99252 0-1.19551 1.59401 0 0-1.19551-1.59401"/>
<use data-text="1" xlink:href="#font_1_4" transform="matrix(9.9626,0,0,-9.963098,72.079,294.4169)"/>
<use data-text="2" xlink:href="#font_1_5" transform="matrix(9.9626,0,0,-9.963098,121.061,294.4169)"/>
<use data-text="3" xlink:href="#font_1_6" transform="matrix(9.9626,0,0,-9.963098,170.043,294.4169)"/>
<use data-text="4" xlink:href="#font_1_7" transform="matrix(9.9626,0,0,-9.963098,219.02599,294.4169)"/>
<use data-text="5" xlink:href="#font_1_8" transform="matrix(9.9626,0,0,-9.963098,268.008,294.4169)"/>
<use data-text="1" xlink:href="#font_1_4" transform="matrix(9.9626,0,0,-9.963098,14.959999,258.84114)"/>
<use data-text="2" xlink:href="#font_1_5" transform="matrix(9.9626,0,0,-9.963098,14.959999,232.12079)"/>
<use data-text="3" xlink:href="#font_1_6" transform="matrix(9.9626,0,0,-9.963098,14.959999,205.40146)"/>
<use data-text="4" xlink:href="#font_1_7" transform="matrix(9.9626,0,0,-9.963098,14.959999,178.68213)"/>
<use data-text="5" xlink:href="#font_1_8" transform="matrix(9.9626,0,0,-9.963098,14.959999,151.96279)"/>
<use data-text="6" xlink:href="#font_1_9" transform="matrix(9.9626,0,0,-9.963098,14.959999,125.24246)"/>
<use data-text="7" xlink:href="#font_1_10" transform="matrix(9.9626,0,0,-9.963098,14.959999,98.52312)"/>
<use data-text="8" xlink:href="#font_1_11" transform="matrix(9.9626,0,0,-9.963098,14.959999,71.8038)"/>
<use data-text="9" xlink:href="#font_1_12" transform="matrix(9.9626,0,0,-9.963098,14.959999,45.084444)"/>
<use data-text="1" xlink:href="#font_1_4" transform="matrix(9.9626,0,0,-9.963098,9.979004,18.364106)"/>
<use data-text="0" xlink:href="#font_1_3" transform="matrix(9.9626,0,0,-9.963098,14.960304,18.364106)"/>
<g clip-path="url(#clip_2)">
<path transform="matrix(1,0,0,-1.00005,1.0960007,335.78898)" stroke-width="1.59404" stroke-linecap="butt" stroke-miterlimit="10" stroke-linejoin="miter" fill="none" stroke="#0000ff" d="M0 0C0 0 1.78732 1.94987 2.47379 2.69876 3.16025 3.44763 4.26112 4.6486 4.94759 5.39749 5.63405 6.14636 6.73492 7.34738 7.42139 8.09627 8.10785 8.84514 9.20872 10.04611 9.89519 10.795 10.58165 11.54387 11.68253 12.74487 12.36899 13.49377 13.05545 14.24266 14.15633 15.44365 14.84279 16.19254 15.52925 16.9414 16.63014 18.14238 17.31659 18.89127 18.00305 19.64014 19.10394 20.84116 19.7904 21.59004 20.47685 22.33891 21.57774 23.53989 22.2642 24.28877 22.95067 25.03764 24.05154 26.23865 24.738 26.98755 25.42447 27.73645 26.52534 28.93742 27.2118 29.68631 27.89827 30.4352 28.99915 31.63615 29.68561 32.38504 30.37207 33.13393 31.47295 34.33493 32.15941 35.08382 32.84587 35.8327 33.94676 37.03368 34.63321 37.78255 35.31967 38.53143 36.42055 39.73244 37.10701 40.48132 37.79346 41.23022 38.89435 42.43121 39.58081 43.18008 40.26727 43.92897 41.36815 45.12994 42.05461 45.87881 42.74107 46.6277 43.84195 47.82872 44.52841 48.57759 45.21487 49.32648 46.31575 50.52745 47.00221 51.27632 47.68867 52.0252 48.78955 53.22621 49.47601 53.9751 50.16248 54.724 51.26335 55.92499 51.94981 56.67386 52.63628 57.42274 53.73717 58.62372 54.42363 59.37259 55.11008 60.12148 56.21097 61.3225 56.89743 62.07137 57.5839 62.82025 58.68477 64.02122 59.37123 64.77011 60.0577 65.51898 61.15857 66.71999 61.84503 67.46889 62.5315 68.21777 63.63237 69.41876 64.31883 70.16765 65.0053 70.91652 66.10617 72.1175 66.79263 72.86638 67.4791 73.61525 68.57997 74.81627 69.26643 75.56516 69.9529 76.31403 71.05379 77.515 71.74023 78.26389 72.4267 79.01276 73.52757 80.21378 74.21404 80.96266 74.90048 81.71153 76.00137 82.91249 76.68784 83.66139 77.3743 84.41028 78.47517 85.6113 79.16164 86.3602 79.8481 87.10909 80.94897 88.31004 81.63544 89.05893 82.3219 89.80782 83.42278 91.00877 84.10924 91.75766 84.7957 92.50655 85.89658 93.70749 86.58304 94.45639 87.2695 95.20529 88.37039 96.4063 89.05684 97.1552 89.7433 97.9041 90.8442 99.10504 91.53065 99.85393 92.2171 100.60281 93.318 101.80377 94.00446 102.55266 94.69092 103.30156 95.7918 104.5026 96.47826 105.25148 97.16472 106.00038 98.2656 107.20134 98.95206 107.95021 99.63852 108.6991 100.7394 109.90005 101.42586 110.64894 102.11232 111.39784 103.2132 112.59886 103.89966 113.34775 104.58612 114.09665 105.687 115.2976 106.37346 116.04648 107.05992 116.79536 108.1608 117.99634 108.84726 118.74521 109.5337 119.4941 110.6346 120.69505 111.32106 121.44394 112.00752 122.19284 113.1084 123.39386 113.79486 124.14275 114.48132 124.89165 115.5822 126.0926 116.26866 126.84149 116.95512 127.59036 118.056 128.79132 118.74246 129.54022 119.42892 130.28911 120.5298 131.49015 121.21626 132.23905 121.90273 132.98793 123.0036 134.18889 123.69006 134.93778 124.37653 135.68665 125.47742 136.8876 126.16386 137.6365 126.85033 138.38539 127.95122 139.58641 128.63768 140.33531 129.32413 141.0842 130.42502 142.28516 131.11148 143.03404 131.79795 143.78292 132.89882 144.98387 133.58528 145.73278 134.27175 146.48166 135.37262 147.68268 136.05908 148.43158 136.74555 149.18047 137.84642 150.38143 138.53289 151.13031 139.21935 151.87918 140.32022 153.08016 141.00669 153.82904 141.69315 154.57793 142.79404 155.77887 143.48049 156.52777 144.16695 157.27667 145.26782 158.47769 145.95429 159.2266 146.64073 159.9755 147.74163 161.17644 148.42809 161.92533 149.11455 162.67421 150.21543 163.87517 150.90189 164.62406 151.58835 165.37296 152.68923 166.57398 153.37569 167.32286 154.06215 168.07176 155.16303 169.27272 155.84949 170.02159 156.53595 170.77048 157.63683 171.97144 158.32329 172.72032 159.00975 173.46923 160.11064 174.67024 160.79709 175.41913 161.48355 176.16803 162.58444 177.36899 163.2709 178.11786 163.95735 178.86675 165.05825 180.06772 165.7447 180.81659 166.43117 181.56548 167.53205 182.76644 168.2185 183.51532 168.90497 184.26422 170.00585 185.46526 170.6923 186.21414 171.37877 186.96305 172.47965 188.164 173.1661 188.91287 173.85257 189.66176 174.95345 190.86272 175.63991 191.61162 176.32637 192.3605 177.42725 193.56153 178.11371 194.31043 178.80017 195.05931 179.90105 196.26027 180.5875 197.00916 181.27396 197.75803 182.37485 198.959 183.06131 199.70789 183.74776 200.45676 184.84865 201.65772 185.53511 202.40662 186.22158 203.1555 187.32245 204.35652 188.00891 205.10543 188.69538 205.85431 189.79625 207.05527 190.48271 207.80416 191.16918 208.55303 192.27005 209.75399 192.95652 210.50289 193.64298 211.25177 194.74385 212.4528 195.43032 213.2017 196.11678 213.95059 197.21767 215.15155 197.90412 215.90044 198.59058 216.64933 199.69147 217.85027 200.37793 218.59917 201.06438 219.34807 202.16527 220.54907 202.85173 221.29798 203.5382 222.04688 204.63907 223.24782 205.32553 223.9967 206.012 224.74559 207.11287 225.94657 207.79933 226.69544 208.4858 227.44432 209.58667 228.64528 210.27313 229.39417 210.9596 230.14307 212.06047 231.34409 212.74694 232.09297 213.4334 232.84188 214.53429 234.04283 215.22074 234.7917 215.9072 235.54059 217.00807 236.74155 217.69454 237.49044 218.38098 238.23934 219.48188 239.44037 220.16834 240.18926 220.8548 240.93816 221.95568 242.13912 222.64214 242.88799 223.3286 243.63687 224.42948 244.83783 225.11594 245.58672 225.8024 246.33562 226.90328 247.53664 227.58974 248.28553 228.2762 249.03443 229.37708 250.23538 230.06354 250.98426 230.75 251.73314 231.85088 252.9341 232.53734 253.683 233.2238 254.43189 234.32469 255.6329 235.01114 256.3818 235.6976 257.13069 236.7985 258.33168 237.48496 259.08055 238.1714 259.8294 239.2723 261.03038 239.95876 261.77928 240.64522 262.52815 241.7461 263.7291 242.43256 264.478 243.11902 265.22688 244.90636 267.17683 244.90636 267.17683"/>
</g>
<use data-text="t" xlink:href="#font_3_2" transform="matrix(9.9626,0,0,-9.963098,287.91798,278.82115)"/>
<use data-text="f" xlink:href="#font_3_1" transform="matrix(9.9626,0,0,-9.963098,29.112,12.718842)"/>
<use data-text="(" xlink:href="#font_1_1" transform="matrix(9.9626,0,0,-9.963098,35.061998,12.718842)"/>
<use data-text="t" xlink:href="#font_3_2" transform="matrix(9.9626,0,0,-9.963098,38.935998,12.718842)"/>
<use data-text=")" xlink:href="#font_1_2" transform="matrix(9.9626,0,0,-9.963098,42.533998,12.718842)"/>
</svg>
